<?xml version="1.0" encoding="utf-8"?>
<svg version="1.1" xmlns:xlink="http://www.w3.org/1999/xlink" width="46px" height="27px" xmlns="http://www.w3.org/2000/svg">
  <defs>
    <mask fill="white" id="clip113">
      <path d="M 4.76284735439663 0.990102778835308  C 2.3561711940747 1.00101127837524  0.412485169619117 2.95797989525272  0.417967263037667 5.36467453368846  C 0.417967263037667 5.36467453368846  0.417967263037667 22.6254282451466  0.417967263037667 22.6254282451466  C 0.417967263037667 25.0359714280776  2.37209861379517 26.9901027788353  4.78264179672624 26.9901027788353  C 4.78264179672624 26.9901027788353  45.5097068899885 26.9901027788353  45.5097068899885 26.9901027788353  C 45.5097068899885 26.9901027788353  45.5097068899885 0.990102778835308  45.5097068899885 0.990102778835308  C 45.5097068899885 0.990102778835308  4.76284735439663 0.990102778835308  4.76284735439663 0.990102778835308  Z " fill-rule="evenodd" />
    </mask>
  </defs>
  <g transform="matrix(1 0 0 1 -1512 -24 )">
    <path d="M 4.76284735439663 0.990102778835308  C 2.3561711940747 1.00101127837524  0.412485169619117 2.95797989525272  0.417967263037667 5.36467453368846  C 0.417967263037667 5.36467453368846  0.417967263037667 22.6254282451466  0.417967263037667 22.6254282451466  C 0.417967263037667 25.0359714280776  2.37209861379517 26.9901027788353  4.78264179672624 26.9901027788353  C 4.78264179672624 26.9901027788353  45.5097068899885 26.9901027788353  45.5097068899885 26.9901027788353  C 45.5097068899885 26.9901027788353  45.5097068899885 0.990102778835308  45.5097068899885 0.990102778835308  C 45.5097068899885 0.990102778835308  4.76284735439663 0.990102778835308  4.76284735439663 0.990102778835308  Z " fill-rule="nonzero" fill="#ffffff" stroke="none" fill-opacity="0" transform="matrix(1 0 0 1 1512 24 )" />
    <path d="M 4.76284735439663 0.990102778835308  C 2.3561711940747 1.00101127837524  0.412485169619117 2.95797989525272  0.417967263037667 5.36467453368846  C 0.417967263037667 5.36467453368846  0.417967263037667 22.6254282451466  0.417967263037667 22.6254282451466  C 0.417967263037667 25.0359714280776  2.37209861379517 26.9901027788353  4.78264179672624 26.9901027788353  C 4.78264179672624 26.9901027788353  45.5097068899885 26.9901027788353  45.5097068899885 26.9901027788353  C 45.5097068899885 26.9901027788353  45.5097068899885 0.990102778835308  45.5097068899885 0.990102778835308  C 45.5097068899885 0.990102778835308  4.76284735439663 0.990102778835308  4.76284735439663 0.990102778835308  Z " stroke-width="1.97944423296536" stroke="#e52e4c" fill="none" transform="matrix(1 0 0 1 1512 24 )" mask="url(#clip113)" />
  </g>
</svg>