<?xml version="1.0" encoding="utf-8"?>
<svg version="1.1" xmlns:xlink="http://www.w3.org/1999/xlink" width="46px" height="26px" xmlns="http://www.w3.org/2000/svg">
  <defs>
    <mask fill="white" id="clip114">
      <path d="M 45.591929958127 4.36467453368846  C 45.591929958127 1.95413135075751  43.6377986073694 0  41.2272554244386 0  C 41.2272554244386 0  0.500190331176213 0  0.500190331176213 0  C 0.500190331176213 0  0.500190331176213 26  0.500190331176213 26  C 0.500190331176213 26  41.2272554244385 26  41.2272554244383 26  C 43.6377986073693 26  45.591929958127 24.0458686492425  45.591929958127 21.6353254663113  C 45.591929958127 21.6353254663113  45.591929958127 4.36467453368846  45.591929958127 4.36467453368846  Z " fill-rule="evenodd" />
    </mask>
  </defs>
  <g transform="matrix(1 0 0 1 -1556 -25 )">
    <path d="M 45.591929958127 4.36467453368846  C 45.591929958127 1.95413135075751  43.6377986073694 0  41.2272554244386 0  C 41.2272554244386 0  0.500190331176213 0  0.500190331176213 0  C 0.500190331176213 0  0.500190331176213 26  0.500190331176213 26  C 0.500190331176213 26  41.2272554244385 26  41.2272554244383 26  C 43.6377986073693 26  45.591929958127 24.0458686492425  45.591929958127 21.6353254663113  C 45.591929958127 21.6353254663113  45.591929958127 4.36467453368846  45.591929958127 4.36467453368846  Z " fill-rule="nonzero" fill="#1d69a3" stroke="none" transform="matrix(1 0 0 1 1556 25 )" />
    <path d="M 45.591929958127 4.36467453368846  C 45.591929958127 1.95413135075751  43.6377986073694 0  41.2272554244386 0  C 41.2272554244386 0  0.500190331176213 0  0.500190331176213 0  C 0.500190331176213 0  0.500190331176213 26  0.500190331176213 26  C 0.500190331176213 26  41.2272554244385 26  41.2272554244383 26  C 43.6377986073693 26  45.591929958127 24.0458686492425  45.591929958127 21.6353254663113  C 45.591929958127 21.6353254663113  45.591929958127 4.36467453368846  45.591929958127 4.36467453368846  Z " stroke-width="1.97944423296536" stroke="#1d69a3" fill="none" transform="matrix(1 0 0 1 1556 25 )" mask="url(#clip114)" />
  </g>
</svg>