<?xml version="1.0" encoding="utf-8"?>
<svg version="1.1" xmlns:xlink="http://www.w3.org/1999/xlink" width="198px" height="43px" xmlns="http://www.w3.org/2000/svg">
  <g transform="matrix(1 0 0 1 -429 -374 )">
    <path d="M 0.444189559671258 27.2301236501985  L 1 27.2401107816258  L 1 14.7062608403737  C 0.444189559671258 6.93627258994024  44.3875678397585 0.634392659318564  98.7175628042301 0.634392659318564  C 153.047557768702 0.634392659318564  196.990936048789 6.93627258994024  197 14.7062608403737  L 197 27.2301236501985  C 196.990936048789 35.0001119006322  152.987634980138 41.3019918312536  98.7175628042301 41.3019918312536  C 44.4474906283224 41.3019918312536  0.444189559671258 35.0001119006322  0.444189559671258 27.2301236501985  Z " fill-rule="nonzero" fill="#ffffff" stroke="none" transform="matrix(1 0 0 1 429 374 )" />
    <path d="M 1 27.2401107816258  L 1 14.7062608403737  C 0.444189559671258 6.93627258994024  44.3875678397585 0.634392659318564  98.7175628042301 0.634392659318564  C 153.047557768702 0.634392659318564  196.990936048789 6.93627258994024  197 14.7062608403737  L 197 27.2301236501985  C 196.990936048789 35.0001119006322  152.987634980138 41.3019918312536  98.7175628042301 41.3019918312536  C 44.4474906283224 41.3019918312536  0.444189559671258 35.0001119006322  0.444189559671258 27.2301236501985  " stroke-width="0.749034857046942" stroke="#676d72" fill="none" transform="matrix(1 0 0 1 429 374 )" />
  </g>
</svg>