<?xml version="1.0" encoding="utf-8"?>
<svg version="1.1" xmlns:xlink="http://www.w3.org/1999/xlink" width="197px" height="29px" xmlns="http://www.w3.org/2000/svg">
  <g transform="matrix(1 0 0 1 -429 -374 )">
    <path d="M 527.5 374  C 582.66 374  626 380.38  626 388.5  C 626 396.62  582.66 403  527.5 403  C 472.34 403  429 396.62  429 388.5  C 429 380.38  472.34 374  527.5 374  Z " fill-rule="nonzero" fill="#ffffff" stroke="none" />
    <path d="M 527.5 374.374517428523  C 582.450270240027 374.374517428523  625.625482571476 380.589729759973  625.625482571476 388.5  C 625.625482571476 396.410270240027  582.450270240027 402.625482571477  527.5 402.625482571477  C 472.549729759973 402.625482571477  429.374517428523 396.410270240027  429.374517428523 388.5  C 429.374517428523 380.589729759973  472.549729759973 374.374517428523  527.5 374.374517428523  Z " stroke-width="0.749034857046942" stroke="#676d72" fill="none" />
  </g>
</svg>