<?xml version="1.0" encoding="utf-8"?>
<svg version="1.1" xmlns:xlink="http://www.w3.org/1999/xlink" width="55px" height="56px" xmlns="http://www.w3.org/2000/svg">
  <defs>
    <mask fill="white" id="clip97">
      <path d="M 7.85115817154383 0.499818161472604  C 7.85115817154383 0.499818161472604  1.87885357802293 3.96535276674285  1.87885357802293 3.96535276674285  C 0.84763533870273 4.55595903527137  0.211344387232884 5.65327516714774  0.211002629664904 6.84164661780346  C 0.211002629664904 6.84164661780346  0.211002629664904 48.1883707267948  0.211002629664904 48.1883707267948  C 0.212359003992788 49.8981377487705  1.50625625263854 51.3300507039387  3.20714205785271 51.5040983606557  C 3.20714205785271 51.5040983606557  44.5738404296985 55.1394142001905  44.5738404296985 55.1394142001905  C 45.2737168928347 55.1964882341094  45.9735283995569 55.0285334724963  46.571266715157 54.6600318916803  C 46.571266715157 54.6600318916803  52.5635455715326 51.1944972864098  52.5635455715326 51.1944972864098  C 53.5924372625767 50.6028637057063  54.2251977733592 49.5050623376014  54.221409388463 48.3182034353495  C 54.221409388463 48.3182034353495  54.221409388463 6.97147932635812  54.2214093884629 6.97147932635812  C 54.2200530141351 5.2617123043824  52.9261557654893 3.82979934921423  51.2252699602753 3.65575169249701  C 51.2252699602753 3.65575169249701  9.84858445700229 0.0204358529624642  9.84858445700229 0.0204358529624642  C 9.14897993154841 -0.0331727342222621  8.45022699051037 0.134527971626994  7.85115817154383 0.499818161472604  Z " fill-rule="evenodd" />
    </mask>
  </defs>
  <g transform="matrix(1 0 0 1 -552 -335 )">
    <path d="M 7.85115817154383 0.499818161472604  C 7.85115817154383 0.499818161472604  1.87885357802293 3.96535276674285  1.87885357802293 3.96535276674285  C 0.84763533870273 4.55595903527137  0.211344387232884 5.65327516714774  0.211002629664904 6.84164661780346  C 0.211002629664904 6.84164661780346  0.211002629664904 48.1883707267948  0.211002629664904 48.1883707267948  C 0.212359003992788 49.8981377487705  1.50625625263854 51.3300507039387  3.20714205785271 51.5040983606557  C 3.20714205785271 51.5040983606557  44.5738404296985 55.1394142001905  44.5738404296985 55.1394142001905  C 45.2737168928347 55.1964882341094  45.9735283995569 55.0285334724963  46.571266715157 54.6600318916803  C 46.571266715157 54.6600318916803  52.5635455715326 51.1944972864098  52.5635455715326 51.1944972864098  C 53.5924372625767 50.6028637057063  54.2251977733592 49.5050623376014  54.221409388463 48.3182034353495  C 54.221409388463 48.3182034353495  54.221409388463 6.97147932635812  54.2214093884629 6.97147932635812  C 54.2200530141351 5.2617123043824  52.9261557654893 3.82979934921423  51.2252699602753 3.65575169249701  C 51.2252699602753 3.65575169249701  9.84858445700229 0.0204358529624642  9.84858445700229 0.0204358529624642  C 9.14897993154841 -0.0331727342222621  8.45022699051037 0.134527971626994  7.85115817154383 0.499818161472604  Z " fill-rule="nonzero" fill="#ffffff" stroke="none" transform="matrix(1 0 0 1 552 335 )" />
    <path d="M 7.85115817154383 0.499818161472604  C 7.85115817154383 0.499818161472604  1.87885357802293 3.96535276674285  1.87885357802293 3.96535276674285  C 0.84763533870273 4.55595903527137  0.211344387232884 5.65327516714774  0.211002629664904 6.84164661780346  C 0.211002629664904 6.84164661780346  0.211002629664904 48.1883707267948  0.211002629664904 48.1883707267948  C 0.212359003992788 49.8981377487705  1.50625625263854 51.3300507039387  3.20714205785271 51.5040983606557  C 3.20714205785271 51.5040983606557  44.5738404296985 55.1394142001905  44.5738404296985 55.1394142001905  C 45.2737168928347 55.1964882341094  45.9735283995569 55.0285334724963  46.571266715157 54.6600318916803  C 46.571266715157 54.6600318916803  52.5635455715326 51.1944972864098  52.5635455715326 51.1944972864098  C 53.5924372625767 50.6028637057063  54.2251977733592 49.5050623376014  54.221409388463 48.3182034353495  C 54.221409388463 48.3182034353495  54.221409388463 6.97147932635812  54.2214093884629 6.97147932635812  C 54.2200530141351 5.2617123043824  52.9261557654893 3.82979934921423  51.2252699602753 3.65575169249701  C 51.2252699602753 3.65575169249701  9.84858445700229 0.0204358529624642  9.84858445700229 0.0204358529624642  C 9.14897993154841 -0.0331727342222621  8.45022699051037 0.134527971626994  7.85115817154383 0.499818161472604  Z " stroke-width="1.49806971409388" stroke="#676d72" fill="none" transform="matrix(1 0 0 1 552 335 )" mask="url(#clip97)" />
  </g>
</svg>