<?xml version="1.0" encoding="utf-8"?>
<svg version="1.1" xmlns:xlink="http://www.w3.org/1999/xlink" width="49px" height="53px" xmlns="http://www.w3.org/2000/svg">
  <defs>
    <mask fill="white" id="clip98">
      <path d="M 44.92339301402 52.1538566983661  C 44.8200232927453 52.1538566983661  44.7167097755842 52.1490373000358  44.6137889554077 52.1394142001902  C 44.6137889554077 52.1394142001902  3.247090583562 48.5040983606555  3.247090583562 48.5040983606555  C 1.54620477834794 48.3300507039385  0.252307529701966 46.8981377487705  0.250951155374196 45.1883707267946  C 0.250951155374196 45.1883707267946  0.250951155374196 3.84164661780324  0.250951155374196 3.84164661780324  C 0.250949901713398 3.84046773219461  0.250949274882601 3.83928884576221  0.250949274882601 3.83810995948693  C 0.250949274882601 2.00136841233098  1.73992249301523 0.512395194198461  3.57666404017107 0.512395194198461  C 3.67668853566158 0.512395194198461  3.7766621107038 0.516907711574277  3.87627986348139 0.52591898394212  C 3.87627986348139 0.52591898394212  45.2529653667544 4.17122195490401  45.2529653667546 4.17122195490401  C 46.9545341448721 4.33599342747698  48.2519148250369 5.76743677792547  48.2491047949422 7.47696245733778  C 48.2491047949422 7.47696245733778  48.2491047949422 48.8236865663291  48.2491047949422 48.8236865663291  C 48.2491067845194 48.825171687756  48.2491077793084 48.8266568103184  48.2491077793084 48.8281419330776  C 48.2491077793084 50.6648834802336  46.760134561176 52.1538566983661  44.92339301402 52.1538566983661  Z " fill-rule="evenodd" />
    </mask>
  </defs>
  <g transform="matrix(1 0 0 1 -552 -338 )">
    <path d="M 44.92339301402 52.1538566983661  C 44.8200232927453 52.1538566983661  44.7167097755842 52.1490373000358  44.6137889554077 52.1394142001902  C 44.6137889554077 52.1394142001902  3.247090583562 48.5040983606555  3.247090583562 48.5040983606555  C 1.54620477834794 48.3300507039385  0.252307529701966 46.8981377487705  0.250951155374196 45.1883707267946  C 0.250951155374196 45.1883707267946  0.250951155374196 3.84164661780324  0.250951155374196 3.84164661780324  C 0.250949901713398 3.84046773219461  0.250949274882601 3.83928884576221  0.250949274882601 3.83810995948693  C 0.250949274882601 2.00136841233098  1.73992249301523 0.512395194198461  3.57666404017107 0.512395194198461  C 3.67668853566158 0.512395194198461  3.7766621107038 0.516907711574277  3.87627986348139 0.52591898394212  C 3.87627986348139 0.52591898394212  45.2529653667544 4.17122195490401  45.2529653667546 4.17122195490401  C 46.9545341448721 4.33599342747698  48.2519148250369 5.76743677792547  48.2491047949422 7.47696245733778  C 48.2491047949422 7.47696245733778  48.2491047949422 48.8236865663291  48.2491047949422 48.8236865663291  C 48.2491067845194 48.825171687756  48.2491077793084 48.8266568103184  48.2491077793084 48.8281419330776  C 48.2491077793084 50.6648834802336  46.760134561176 52.1538566983661  44.92339301402 52.1538566983661  Z " fill-rule="nonzero" fill="#ffffff" stroke="none" transform="matrix(1 0 0 1 552 338 )" />
    <path d="M 44.92339301402 52.1538566983661  C 44.8200232927453 52.1538566983661  44.7167097755842 52.1490373000358  44.6137889554077 52.1394142001902  C 44.6137889554077 52.1394142001902  3.247090583562 48.5040983606555  3.247090583562 48.5040983606555  C 1.54620477834794 48.3300507039385  0.252307529701966 46.8981377487705  0.250951155374196 45.1883707267946  C 0.250951155374196 45.1883707267946  0.250951155374196 3.84164661780324  0.250951155374196 3.84164661780324  C 0.250949901713398 3.84046773219461  0.250949274882601 3.83928884576221  0.250949274882601 3.83810995948693  C 0.250949274882601 2.00136841233098  1.73992249301523 0.512395194198461  3.57666404017107 0.512395194198461  C 3.67668853566158 0.512395194198461  3.7766621107038 0.516907711574277  3.87627986348139 0.52591898394212  C 3.87627986348139 0.52591898394212  45.2529653667544 4.17122195490401  45.2529653667546 4.17122195490401  C 46.9545341448721 4.33599342747698  48.2519148250369 5.76743677792547  48.2491047949422 7.47696245733778  C 48.2491047949422 7.47696245733778  48.2491047949422 48.8236865663291  48.2491047949422 48.8236865663291  C 48.2491067845194 48.825171687756  48.2491077793084 48.8266568103184  48.2491077793084 48.8281419330776  C 48.2491077793084 50.6648834802336  46.760134561176 52.1538566983661  44.92339301402 52.1538566983661  Z " stroke-width="1.49806971409388" stroke="#676d72" fill="none" transform="matrix(1 0 0 1 552 338 )" mask="url(#clip98)" />
  </g>
</svg>