<?xml version="1.0" encoding="utf-8"?>
<svg version="1.1" xmlns:xlink="http://www.w3.org/1999/xlink" width="29px" height="34px" xmlns="http://www.w3.org/2000/svg">
  <defs>
    <mask fill="white" id="clip99">
      <path d="M 3.65829743188056 3.47469646953505  C 3.65829743188056 3.47469646953505  8.36223633413533 1.01786213842092  8.36223633413533 1.01786213842092  C 9.77339516422057 0.281026094904973  11.428616969614 0.168746278784283  12.9263553964081 0.708261064174849  C 18.7588401499468 2.40607340681481  26.0394589604432 11.084890617132  28.256602137302 19.1744670732389  C 29.7846332456777 24.7572735410954  28.8558300229395 28.9518687405582  26.209240194707 30.4499384546523  C 26.209240194707 30.4499384546523  21.5552369495886 32.8967856543388  21.5552369495886 32.8967856543388  C 20.1454505615991 33.6384813795669  18.4881527250502 33.7509020205582  16.991117887316 33.2063867285849  C 11.1586331337771 31.5085743859452  3.8780143232807 22.8297571756279  1.6608711464221 14.7501678509482  C 0.132840038046197 9.1673613830917  1.06164326078465 4.97276618362889  3.65829743188056 3.47469646953505  Z " fill-rule="evenodd" />
    </mask>
  </defs>
  <g transform="matrix(1 0 0 1 -442 -336 )">
    <path d="M 3.65829743188056 3.47469646953505  C 3.65829743188056 3.47469646953505  8.36223633413533 1.01786213842092  8.36223633413533 1.01786213842092  C 9.77339516422057 0.281026094904973  11.428616969614 0.168746278784283  12.9263553964081 0.708261064174849  C 18.7588401499468 2.40607340681481  26.0394589604432 11.084890617132  28.256602137302 19.1744670732389  C 29.7846332456777 24.7572735410954  28.8558300229395 28.9518687405582  26.209240194707 30.4499384546523  C 26.209240194707 30.4499384546523  21.5552369495886 32.8967856543388  21.5552369495886 32.8967856543388  C 20.1454505615991 33.6384813795669  18.4881527250502 33.7509020205582  16.991117887316 33.2063867285849  C 11.1586331337771 31.5085743859452  3.8780143232807 22.8297571756279  1.6608711464221 14.7501678509482  C 0.132840038046197 9.1673613830917  1.06164326078465 4.97276618362889  3.65829743188056 3.47469646953505  Z " fill-rule="nonzero" fill="#ffffff" stroke="none" transform="matrix(1 0 0 1 442 336 )" />
    <path d="M 3.65829743188056 3.47469646953505  C 3.65829743188056 3.47469646953505  8.36223633413533 1.01786213842092  8.36223633413533 1.01786213842092  C 9.77339516422057 0.281026094904973  11.428616969614 0.168746278784283  12.9263553964081 0.708261064174849  C 18.7588401499468 2.40607340681481  26.0394589604432 11.084890617132  28.256602137302 19.1744670732389  C 29.7846332456777 24.7572735410954  28.8558300229395 28.9518687405582  26.209240194707 30.4499384546523  C 26.209240194707 30.4499384546523  21.5552369495886 32.8967856543388  21.5552369495886 32.8967856543388  C 20.1454505615991 33.6384813795669  18.4881527250502 33.7509020205582  16.991117887316 33.2063867285849  C 11.1586331337771 31.5085743859452  3.8780143232807 22.8297571756279  1.6608711464221 14.7501678509482  C 0.132840038046197 9.1673613830917  1.06164326078465 4.97276618362889  3.65829743188056 3.47469646953505  Z " stroke-width="1.49806971409388" stroke="#676d72" fill="none" transform="matrix(1 0 0 1 442 336 )" mask="url(#clip99)" />
  </g>
</svg>