<?xml version="1.0" encoding="utf-8"?>
<svg version="1.1" xmlns:xlink="http://www.w3.org/1999/xlink" width="18px" height="34px" xmlns="http://www.w3.org/2000/svg">
  <g transform="matrix(1 0 0 1 -449 -343 )">
    <path d="M 458 343  C 463.04 343  467 350.48  467 360  C 467 369.52  463.04 377  458 377  C 452.96 377  449 369.52  449 360  C 449 350.48  452.96 343  458 343  Z " fill-rule="nonzero" fill="#ffffff" stroke="none" />
    <path d="M 458 343.37638535746  C 462.829224199822 343.37638535746  466.62361464254 350.690775800178  466.62361464254 360  C 466.62361464254 369.309224199822  462.829224199822 376.62361464254  458 376.62361464254  C 453.170775800178 376.62361464254  449.37638535746 369.309224199822  449.37638535746 360  C 449.37638535746 350.690775800178  453.170775800178 343.37638535746  458 343.37638535746  Z " stroke-width="0.752770714920584" stroke="#676d72" fill="none" />
  </g>
</svg>