<?xml version="1.0" encoding="utf-8"?>
<svg version="1.1" xmlns:xlink="http://www.w3.org/1999/xlink" width="55px" height="56px" xmlns="http://www.w3.org/2000/svg">
  <defs>
    <mask fill="white" id="clip100">
      <path d="M 8.30088681251061 0.521638784759034  C 8.30088681251061 0.521638784759034  2.30860795613512 3.98717339002928  2.30860795613512 3.98717339002928  C 1.27738971681515 4.5777796585578  0.641098765345305 5.67509579043463  0.640757007777324 6.86346724108989  C 0.640757007777324 6.86346724108989  0.640757007777324 48.2101913500812  0.640757007777211 48.2101913500815  C 0.642607560996566 49.9179199988198  1.93757286588936 51.3466983852179  3.63689643596501 51.515931852515  C 3.63689643596501 51.515931852515  45.0135819392381 55.1612348234769  45.0135819392381 55.1612348234769  C 45.7130778469809 55.2134887929647  46.4114213883665 55.0458863430322  47.0110082246966 54.681852514967  C 47.0110082246966 54.681852514967  53.0032870810721 51.2163179096963  53.0032870810722 51.2163179096963  C 54.0345053203923 50.6257116411678  54.6707962718624 49.5283955092914  54.6711380294299 48.3400240586359  C 54.6711380294299 48.3400240586359  54.6711380294299 6.99329994964455  54.6711380294298 6.99329994964455  C 54.6744229218955 5.28174809819711  53.3781289076668 3.84718272245073  51.6749986012422 3.67757231578366  C 51.6749986012422 3.67757231578366  10.2983130979692 0.0422564762488946  10.2983130979691 0.0422564762488946  C 9.59816444120031 -0.0184004158677453  8.89724156470697 0.149821074490774  8.30088681251061 0.521638784759034  Z " fill-rule="evenodd" />
    </mask>
  </defs>
  <g transform="matrix(1 0 0 1 -544 -287 )">
    <path d="M 8.30088681251061 0.521638784759034  C 8.30088681251061 0.521638784759034  2.30860795613512 3.98717339002928  2.30860795613512 3.98717339002928  C 1.27738971681515 4.5777796585578  0.641098765345305 5.67509579043463  0.640757007777324 6.86346724108989  C 0.640757007777324 6.86346724108989  0.640757007777324 48.2101913500812  0.640757007777211 48.2101913500815  C 0.642607560996566 49.9179199988198  1.93757286588936 51.3466983852179  3.63689643596501 51.515931852515  C 3.63689643596501 51.515931852515  45.0135819392381 55.1612348234769  45.0135819392381 55.1612348234769  C 45.7130778469809 55.2134887929647  46.4114213883665 55.0458863430322  47.0110082246966 54.681852514967  C 47.0110082246966 54.681852514967  53.0032870810721 51.2163179096963  53.0032870810722 51.2163179096963  C 54.0345053203923 50.6257116411678  54.6707962718624 49.5283955092914  54.6711380294299 48.3400240586359  C 54.6711380294299 48.3400240586359  54.6711380294299 6.99329994964455  54.6711380294298 6.99329994964455  C 54.6744229218955 5.28174809819711  53.3781289076668 3.84718272245073  51.6749986012422 3.67757231578366  C 51.6749986012422 3.67757231578366  10.2983130979692 0.0422564762488946  10.2983130979691 0.0422564762488946  C 9.59816444120031 -0.0184004158677453  8.89724156470697 0.149821074490774  8.30088681251061 0.521638784759034  Z " fill-rule="nonzero" fill="#ffffff" stroke="none" transform="matrix(1 0 0 1 544 287 )" />
    <path d="M 8.30088681251061 0.521638784759034  C 8.30088681251061 0.521638784759034  2.30860795613512 3.98717339002928  2.30860795613512 3.98717339002928  C 1.27738971681515 4.5777796585578  0.641098765345305 5.67509579043463  0.640757007777324 6.86346724108989  C 0.640757007777324 6.86346724108989  0.640757007777324 48.2101913500812  0.640757007777211 48.2101913500815  C 0.642607560996566 49.9179199988198  1.93757286588936 51.3466983852179  3.63689643596501 51.515931852515  C 3.63689643596501 51.515931852515  45.0135819392381 55.1612348234769  45.0135819392381 55.1612348234769  C 45.7130778469809 55.2134887929647  46.4114213883665 55.0458863430322  47.0110082246966 54.681852514967  C 47.0110082246966 54.681852514967  53.0032870810721 51.2163179096963  53.0032870810722 51.2163179096963  C 54.0345053203923 50.6257116411678  54.6707962718624 49.5283955092914  54.6711380294299 48.3400240586359  C 54.6711380294299 48.3400240586359  54.6711380294299 6.99329994964455  54.6711380294298 6.99329994964455  C 54.6744229218955 5.28174809819711  53.3781289076668 3.84718272245073  51.6749986012422 3.67757231578366  C 51.6749986012422 3.67757231578366  10.2983130979692 0.0422564762488946  10.2983130979691 0.0422564762488946  C 9.59816444120031 -0.0184004158677453  8.89724156470697 0.149821074490774  8.30088681251061 0.521638784759034  Z " stroke-width="1.49806971409388" stroke="#676d72" fill="none" transform="matrix(1 0 0 1 544 287 )" mask="url(#clip100)" />
  </g>
</svg>