<?xml version="1.0" encoding="utf-8"?>
<svg version="1.1" xmlns:xlink="http://www.w3.org/1999/xlink" width="49px" height="53px" xmlns="http://www.w3.org/2000/svg">
  <defs>
    <mask fill="white" id="clip101">
      <path d="M 45.3431591568299 52.1547843503661  C 45.243134661338 52.1547843503661  45.1431610862988 52.15027183299  45.0435433335199 52.1412605606222  C 45.0435433335199 52.1412605606222  3.66685783024684 48.4959575896603  3.66685783024684 48.4959575896603  C 1.96753426017119 48.326724122363  0.672568955278393 46.8979457359646  0.670718402059151 45.1902170872265  C 0.670718402059151 45.1902170872265  0.670718402059151 3.84349297823519  0.670718402059038 3.84349297823519  C 0.670717148398239 3.84231409262679  0.670716521567556 3.84113520619371  0.670716521567556 3.83995631991843  C 0.670716521567556 2.0032147727627  2.15968973970007 0.514241554630189  3.99643128685602 0.514241554630189  C 4.0964557823479 0.514241554630189  4.19642935738739 0.518754072006232  4.29604711016634 0.527765344374075  C 4.29604711016634 0.527765344374075  45.6727326134394 4.16308118390862  45.6727326134394 4.16308118390862  C 47.3736184186532 4.33712884062606  48.6675156672993 5.76904179579424  48.6688720416271 7.47880881776973  C 48.6688720416271 7.47880881776973  48.6688720416271 48.8255329267611  48.668872041627 48.8255329267611  C 48.6688732952879 48.8267118124882  48.6688739221183 48.8278906986841  48.6688739221183 48.8290695850776  C 48.6688739221183 50.6658111322336  47.1799007039858 52.1547843503661  45.3431591568299 52.1547843503661  Z " fill-rule="evenodd" />
    </mask>
  </defs>
  <g transform="matrix(1 0 0 1 -544 -290 )">
    <path d="M 45.3431591568299 52.1547843503661  C 45.243134661338 52.1547843503661  45.1431610862988 52.15027183299  45.0435433335199 52.1412605606222  C 45.0435433335199 52.1412605606222  3.66685783024684 48.4959575896603  3.66685783024684 48.4959575896603  C 1.96753426017119 48.326724122363  0.672568955278393 46.8979457359646  0.670718402059151 45.1902170872265  C 0.670718402059151 45.1902170872265  0.670718402059151 3.84349297823519  0.670718402059038 3.84349297823519  C 0.670717148398239 3.84231409262679  0.670716521567556 3.84113520619371  0.670716521567556 3.83995631991843  C 0.670716521567556 2.0032147727627  2.15968973970007 0.514241554630189  3.99643128685602 0.514241554630189  C 4.0964557823479 0.514241554630189  4.19642935738739 0.518754072006232  4.29604711016634 0.527765344374075  C 4.29604711016634 0.527765344374075  45.6727326134394 4.16308118390862  45.6727326134394 4.16308118390862  C 47.3736184186532 4.33712884062606  48.6675156672993 5.76904179579424  48.6688720416271 7.47880881776973  C 48.6688720416271 7.47880881776973  48.6688720416271 48.8255329267611  48.668872041627 48.8255329267611  C 48.6688732952879 48.8267118124882  48.6688739221183 48.8278906986841  48.6688739221183 48.8290695850776  C 48.6688739221183 50.6658111322336  47.1799007039858 52.1547843503661  45.3431591568299 52.1547843503661  Z " fill-rule="nonzero" fill="#ffffff" stroke="none" transform="matrix(1 0 0 1 544 290 )" />
    <path d="M 45.3431591568299 52.1547843503661  C 45.243134661338 52.1547843503661  45.1431610862988 52.15027183299  45.0435433335199 52.1412605606222  C 45.0435433335199 52.1412605606222  3.66685783024684 48.4959575896603  3.66685783024684 48.4959575896603  C 1.96753426017119 48.326724122363  0.672568955278393 46.8979457359646  0.670718402059151 45.1902170872265  C 0.670718402059151 45.1902170872265  0.670718402059151 3.84349297823519  0.670718402059038 3.84349297823519  C 0.670717148398239 3.84231409262679  0.670716521567556 3.84113520619371  0.670716521567556 3.83995631991843  C 0.670716521567556 2.0032147727627  2.15968973970007 0.514241554630189  3.99643128685602 0.514241554630189  C 4.0964557823479 0.514241554630189  4.19642935738739 0.518754072006232  4.29604711016634 0.527765344374075  C 4.29604711016634 0.527765344374075  45.6727326134394 4.16308118390862  45.6727326134394 4.16308118390862  C 47.3736184186532 4.33712884062606  48.6675156672993 5.76904179579424  48.6688720416271 7.47880881776973  C 48.6688720416271 7.47880881776973  48.6688720416271 48.8255329267611  48.668872041627 48.8255329267611  C 48.6688732952879 48.8267118124882  48.6688739221183 48.8278906986841  48.6688739221183 48.8290695850776  C 48.6688739221183 50.6658111322336  47.1799007039858 52.1547843503661  45.3431591568299 52.1547843503661  Z " stroke-width="1.49806971409388" stroke="#676d72" fill="none" transform="matrix(1 0 0 1 544 290 )" mask="url(#clip101)" />
  </g>
</svg>