<?xml version="1.0" encoding="utf-8"?>
<svg version="1.1" xmlns:xlink="http://www.w3.org/1999/xlink" width="21px" height="39px" xmlns="http://www.w3.org/2000/svg">
  <defs>
    <mask fill="white" id="clip102">
      <path d="M 8.17172550774933 34.205351647737  C 8.158759836233 33.8193956487942  7.89537132981332 33.4871209176183  7.52256196497513 33.3864068706989  C 5.11522259814876 32.6227349888675  2.90097282327201 31.3486897337843  1.03092653723502 29.6512197168913  C 0.716116753867482 29.3467412887469  0.673525915497294 28.8569466474912  0.931055222962073 28.5026996027527  C 0.931055222962073 28.5026996027527  2.86855871985688 25.8161612488109  2.86855871985699 25.8161612488109  C 3.03339439402623 25.5840816259249  3.30042541063801 25.4462107724439  3.58508617512382 25.4462107724439  C 3.79937205455144 25.4462107724439  4.00627541294068 25.5244996336471  4.16688580540472 25.6663542774015  C 5.65220371059945 27.0689269361653  7.5049853509388 28.0212913307321  9.51000111900635 28.4128154199068  C 11.8469898729928 28.7523778884347  13.6147121356236 28.0033430313879  13.6147121356236 26.1557237173388  C 13.6147121356236 22.0410255692943  1.5902058971634 19.5142813181892  1.5902058971634 11.8142029877467  C 1.5902058971634 7.81935041682982  3.74742628545857 5.23268337716104  7.4027163878477 4.74331393722377  C 7.83991604273501 4.6694582134478  8.15794555271805 4.28782280146834  8.15175124489463 3.84447210876715  C 8.15175124489463 3.84447210876715  8.15175124489463 1.23783080624389  8.15175124489474 1.23783080624389  C 8.15273139029 0.75314055858712  8.54592577482538 0.360740491660408  9.03061701351123 0.360740491660408  C 9.07070662838908 0.360740491660408  9.11074926710296 0.363483524434741  9.15046438762397 0.368950372069548  C 9.15046438762397 0.368950372069548  12.5560762043307 0.758448497734207  12.5560762043308 0.758448497734207  C 12.9842512708851 0.826628613867115  13.3007622523619 1.19378135238026  13.3051110613776 1.62732893190855  C 13.3051110613776 1.62732893190855  13.3051110613776 4.62346836009624  13.3051110613776 4.62346836009601  C 13.3083674377241 5.00218013568451  13.5538624366569 5.33621431456049  13.9143260784426 5.45240026856141  C 15.9545540967481 6.19664149184769  17.7676528601596 7.45583342241457  19.1775443406257 9.10769037095065  C 19.4948153583478 9.45187228012446  19.494815358348 9.98193849590643  19.1775443406257 10.3261204050805  C 19.1775443406257 10.3261204050805  17.0402982151851 12.4833407933756  17.0402982151852 12.4833407933754  C 16.698037753864 12.805493601398  16.1641286423766 12.805493601398  15.8218681810553 12.4833407933756  C 14.7512321760094 11.3269517658025  13.3299141900127 10.5548777981003  11.7770799530018 10.2861718793713  C 9.77965366754336 9.98655793655257  7.97198287920344 10.5458372964808  7.97198287920344 12.4334051362393  C 7.97198287920344 16.2484893414648  20.0464247748002 18.4756196497513  20.0464247748002 26.5851703687129  C 20.0464247748002 30.510113019639  18.0489984893417 33.3264840821353  14.0541459184245 33.8957505734909  C 13.6295312561356 33.9649441932759  13.3194844958077 34.3344519761322  13.3250853242323 34.7646310076652  C 13.3250853242323 34.7646310076652  13.3250853242323 37.4411822301797  13.3250853242324 37.4411822301797  C 13.3241051788372 37.9258724778367  12.9309107943018 38.3182725447632  12.4462195556163 38.3182725447632  C 12.4061299407387 38.3182725447632  12.3660873020239 38.3155295119886  12.3263721815031 38.3100626643541  C 12.3263721815031 38.3100626643541  8.9307474962236 37.9205645386896  8.93074749622349 37.9205645386896  C 8.49421496428158 37.8649386253919  8.16819566493757 37.4917323221955  8.17172550774933 37.0516841045153  C 8.17172550774933 37.0516841045153  8.17172550774933 34.205351647737  8.17172550774933 34.205351647737  Z " fill-rule="evenodd" />
    </mask>
  </defs>
  <g transform="matrix(1 0 0 1 -559 -297 )">
    <path d="M 8.17172550774933 34.205351647737  C 8.158759836233 33.8193956487942  7.89537132981332 33.4871209176183  7.52256196497513 33.3864068706989  C 5.11522259814876 32.6227349888675  2.90097282327201 31.3486897337843  1.03092653723502 29.6512197168913  C 0.716116753867482 29.3467412887469  0.673525915497294 28.8569466474912  0.931055222962073 28.5026996027527  C 0.931055222962073 28.5026996027527  2.86855871985688 25.8161612488109  2.86855871985699 25.8161612488109  C 3.03339439402623 25.5840816259249  3.30042541063801 25.4462107724439  3.58508617512382 25.4462107724439  C 3.79937205455144 25.4462107724439  4.00627541294068 25.5244996336471  4.16688580540472 25.6663542774015  C 5.65220371059945 27.0689269361653  7.5049853509388 28.0212913307321  9.51000111900635 28.4128154199068  C 11.8469898729928 28.7523778884347  13.6147121356236 28.0033430313879  13.6147121356236 26.1557237173388  C 13.6147121356236 22.0410255692943  1.5902058971634 19.5142813181892  1.5902058971634 11.8142029877467  C 1.5902058971634 7.81935041682982  3.74742628545857 5.23268337716104  7.4027163878477 4.74331393722377  C 7.83991604273501 4.6694582134478  8.15794555271805 4.28782280146834  8.15175124489463 3.84447210876715  C 8.15175124489463 3.84447210876715  8.15175124489463 1.23783080624389  8.15175124489474 1.23783080624389  C 8.15273139029 0.75314055858712  8.54592577482538 0.360740491660408  9.03061701351123 0.360740491660408  C 9.07070662838908 0.360740491660408  9.11074926710296 0.363483524434741  9.15046438762397 0.368950372069548  C 9.15046438762397 0.368950372069548  12.5560762043307 0.758448497734207  12.5560762043308 0.758448497734207  C 12.9842512708851 0.826628613867115  13.3007622523619 1.19378135238026  13.3051110613776 1.62732893190855  C 13.3051110613776 1.62732893190855  13.3051110613776 4.62346836009624  13.3051110613776 4.62346836009601  C 13.3083674377241 5.00218013568451  13.5538624366569 5.33621431456049  13.9143260784426 5.45240026856141  C 15.9545540967481 6.19664149184769  17.7676528601596 7.45583342241457  19.1775443406257 9.10769037095065  C 19.4948153583478 9.45187228012446  19.494815358348 9.98193849590643  19.1775443406257 10.3261204050805  C 19.1775443406257 10.3261204050805  17.0402982151851 12.4833407933756  17.0402982151852 12.4833407933754  C 16.698037753864 12.805493601398  16.1641286423766 12.805493601398  15.8218681810553 12.4833407933756  C 14.7512321760094 11.3269517658025  13.3299141900127 10.5548777981003  11.7770799530018 10.2861718793713  C 9.77965366754336 9.98655793655257  7.97198287920344 10.5458372964808  7.97198287920344 12.4334051362393  C 7.97198287920344 16.2484893414648  20.0464247748002 18.4756196497513  20.0464247748002 26.5851703687129  C 20.0464247748002 30.510113019639  18.0489984893417 33.3264840821353  14.0541459184245 33.8957505734909  C 13.6295312561356 33.9649441932759  13.3194844958077 34.3344519761322  13.3250853242323 34.7646310076652  C 13.3250853242323 34.7646310076652  13.3250853242323 37.4411822301797  13.3250853242324 37.4411822301797  C 13.3241051788372 37.9258724778367  12.9309107943018 38.3182725447632  12.4462195556163 38.3182725447632  C 12.4061299407387 38.3182725447632  12.3660873020239 38.3155295119886  12.3263721815031 38.3100626643541  C 12.3263721815031 38.3100626643541  8.9307474962236 37.9205645386896  8.93074749622349 37.9205645386896  C 8.49421496428158 37.8649386253919  8.16819566493757 37.4917323221955  8.17172550774933 37.0516841045153  C 8.17172550774933 37.0516841045153  8.17172550774933 34.205351647737  8.17172550774933 34.205351647737  Z " fill-rule="nonzero" fill="#ffffff" stroke="none" transform="matrix(1 0 0 1 559 297 )" />
    <path d="M 8.17172550774933 34.205351647737  C 8.158759836233 33.8193956487942  7.89537132981332 33.4871209176183  7.52256196497513 33.3864068706989  C 5.11522259814876 32.6227349888675  2.90097282327201 31.3486897337843  1.03092653723502 29.6512197168913  C 0.716116753867482 29.3467412887469  0.673525915497294 28.8569466474912  0.931055222962073 28.5026996027527  C 0.931055222962073 28.5026996027527  2.86855871985688 25.8161612488109  2.86855871985699 25.8161612488109  C 3.03339439402623 25.5840816259249  3.30042541063801 25.4462107724439  3.58508617512382 25.4462107724439  C 3.79937205455144 25.4462107724439  4.00627541294068 25.5244996336471  4.16688580540472 25.6663542774015  C 5.65220371059945 27.0689269361653  7.5049853509388 28.0212913307321  9.51000111900635 28.4128154199068  C 11.8469898729928 28.7523778884347  13.6147121356236 28.0033430313879  13.6147121356236 26.1557237173388  C 13.6147121356236 22.0410255692943  1.5902058971634 19.5142813181892  1.5902058971634 11.8142029877467  C 1.5902058971634 7.81935041682982  3.74742628545857 5.23268337716104  7.4027163878477 4.74331393722377  C 7.83991604273501 4.6694582134478  8.15794555271805 4.28782280146834  8.15175124489463 3.84447210876715  C 8.15175124489463 3.84447210876715  8.15175124489463 1.23783080624389  8.15175124489474 1.23783080624389  C 8.15273139029 0.75314055858712  8.54592577482538 0.360740491660408  9.03061701351123 0.360740491660408  C 9.07070662838908 0.360740491660408  9.11074926710296 0.363483524434741  9.15046438762397 0.368950372069548  C 9.15046438762397 0.368950372069548  12.5560762043307 0.758448497734207  12.5560762043308 0.758448497734207  C 12.9842512708851 0.826628613867115  13.3007622523619 1.19378135238026  13.3051110613776 1.62732893190855  C 13.3051110613776 1.62732893190855  13.3051110613776 4.62346836009624  13.3051110613776 4.62346836009601  C 13.3083674377241 5.00218013568451  13.5538624366569 5.33621431456049  13.9143260784426 5.45240026856141  C 15.9545540967481 6.19664149184769  17.7676528601596 7.45583342241457  19.1775443406257 9.10769037095065  C 19.4948153583478 9.45187228012446  19.494815358348 9.98193849590643  19.1775443406257 10.3261204050805  C 19.1775443406257 10.3261204050805  17.0402982151851 12.4833407933756  17.0402982151852 12.4833407933754  C 16.698037753864 12.805493601398  16.1641286423766 12.805493601398  15.8218681810553 12.4833407933756  C 14.7512321760094 11.3269517658025  13.3299141900127 10.5548777981003  11.7770799530018 10.2861718793713  C 9.77965366754336 9.98655793655257  7.97198287920344 10.5458372964808  7.97198287920344 12.4334051362393  C 7.97198287920344 16.2484893414648  20.0464247748002 18.4756196497513  20.0464247748002 26.5851703687129  C 20.0464247748002 30.510113019639  18.0489984893417 33.3264840821353  14.0541459184245 33.8957505734909  C 13.6295312561356 33.9649441932759  13.3194844958077 34.3344519761322  13.3250853242323 34.7646310076652  C 13.3250853242323 34.7646310076652  13.3250853242323 37.4411822301797  13.3250853242324 37.4411822301797  C 13.3241051788372 37.9258724778367  12.9309107943018 38.3182725447632  12.4462195556163 38.3182725447632  C 12.4061299407387 38.3182725447632  12.3660873020239 38.3155295119886  12.3263721815031 38.3100626643541  C 12.3263721815031 38.3100626643541  8.9307474962236 37.9205645386896  8.93074749622349 37.9205645386896  C 8.49421496428158 37.8649386253919  8.16819566493757 37.4917323221955  8.17172550774933 37.0516841045153  C 8.17172550774933 37.0516841045153  8.17172550774933 34.205351647737  8.17172550774933 34.205351647737  Z " stroke-width="1.49806971409388" stroke="#676d72" fill="none" transform="matrix(1 0 0 1 559 297 )" mask="url(#clip102)" />
  </g>
</svg>