<?xml version="1.0" encoding="utf-8"?>
<svg version="1.1" xmlns:xlink="http://www.w3.org/1999/xlink" width="21px" height="24px" xmlns="http://www.w3.org/2000/svg">
  <defs>
    <mask fill="white" id="clip103">
      <path d="M 0.845031611928562 21.4509175851845  C 0.845031611928562 21.4509175851845  7.39658982823255 0.378070273597132  7.39658982823255 0.378070273597132  C 7.39658982823255 0.378070273597132  14.1379035416551 0.967311027807227  14.1379035416551 0.967311027807227  C 14.1379035416551 0.967311027807227  20.659500363677 23.3584596877972  20.659500363677 23.3584596877972  C 20.659500363677 23.3584596877972  15.3563335757848 22.8491159850053  15.3563335757848 22.8491159850053  C 15.3563335757848 22.8491159850053  14.1379035416551 17.8555502713591  14.1379035416551 17.8555502713591  C 14.1379035416551 17.8555502713591  7.18686006825942 17.2463352542943  7.18686006825942 17.2463352542943  C 7.18686006825942 17.2463352542943  5.96843003412971 21.9502741565491  5.96843003412971 21.9502741565491  C 5.96843003412971 21.9502741565491  0.845031611928562 21.4509175851845  0.845031611928562 21.4509175851845  Z M 8.63499412521674 11.7833743635651  C 8.63499412521674 11.7833743635651  8.18557321098865 13.5011609690596  8.18557321098865 13.5011609690596  C 8.18557321098865 13.5011609690596  13.2190874503441 13.9206204890058  13.2190874503441 13.9206204890058  C 13.2190874503441 13.9206204890058  12.7696665361159 12.1029625692388  12.7696665361159 12.1029625692388  C 12.2004000447602 9.95572931237075  11.6710820791136 6.64000167850963  11.101815587758 4.44283276450528  C 11.101815587758 4.44283276450528  10.2429222850109 4.44283276450528  10.2429222850109 4.44283276450528  C 9.73357858221891 6.60005315280046  9.17429922229053 9.74599955239751  8.63499412521674 11.7833743635651  Z " fill-rule="evenodd" />
    </mask>
  </defs>
  <g transform="matrix(1 0 0 1 -556 -352 )">
    <path d="M 0.845031611928562 21.4509175851845  C 0.845031611928562 21.4509175851845  7.39658982823255 0.378070273597132  7.39658982823255 0.378070273597132  C 7.39658982823255 0.378070273597132  14.1379035416551 0.967311027807227  14.1379035416551 0.967311027807227  C 14.1379035416551 0.967311027807227  20.659500363677 23.3584596877972  20.659500363677 23.3584596877972  C 20.659500363677 23.3584596877972  15.3563335757848 22.8491159850053  15.3563335757848 22.8491159850053  C 15.3563335757848 22.8491159850053  14.1379035416551 17.8555502713591  14.1379035416551 17.8555502713591  C 14.1379035416551 17.8555502713591  7.18686006825942 17.2463352542943  7.18686006825942 17.2463352542943  C 7.18686006825942 17.2463352542943  5.96843003412971 21.9502741565491  5.96843003412971 21.9502741565491  C 5.96843003412971 21.9502741565491  0.845031611928562 21.4509175851845  0.845031611928562 21.4509175851845  Z M 8.63499412521674 11.7833743635651  C 8.63499412521674 11.7833743635651  8.18557321098865 13.5011609690596  8.18557321098865 13.5011609690596  C 8.18557321098865 13.5011609690596  13.2190874503441 13.9206204890058  13.2190874503441 13.9206204890058  C 13.2190874503441 13.9206204890058  12.7696665361159 12.1029625692388  12.7696665361159 12.1029625692388  C 12.2004000447602 9.95572931237075  11.6710820791136 6.64000167850963  11.101815587758 4.44283276450528  C 11.101815587758 4.44283276450528  10.2429222850109 4.44283276450528  10.2429222850109 4.44283276450528  C 9.73357858221891 6.60005315280046  9.17429922229053 9.74599955239751  8.63499412521674 11.7833743635651  Z " fill-rule="nonzero" fill="#ffffff" stroke="none" transform="matrix(1 0 0 1 556 352 )" />
    <path d="M 0.845031611928562 21.4509175851845  C 0.845031611928562 21.4509175851845  7.39658982823255 0.378070273597132  7.39658982823255 0.378070273597132  C 7.39658982823255 0.378070273597132  14.1379035416551 0.967311027807227  14.1379035416551 0.967311027807227  C 14.1379035416551 0.967311027807227  20.659500363677 23.3584596877972  20.659500363677 23.3584596877972  C 20.659500363677 23.3584596877972  15.3563335757848 22.8491159850053  15.3563335757848 22.8491159850053  C 15.3563335757848 22.8491159850053  14.1379035416551 17.8555502713591  14.1379035416551 17.8555502713591  C 14.1379035416551 17.8555502713591  7.18686006825942 17.2463352542943  7.18686006825942 17.2463352542943  C 7.18686006825942 17.2463352542943  5.96843003412971 21.9502741565491  5.96843003412971 21.9502741565491  C 5.96843003412971 21.9502741565491  0.845031611928562 21.4509175851845  0.845031611928562 21.4509175851845  Z " stroke-width="1.49806971409388" stroke="#676d72" fill="none" transform="matrix(1 0 0 1 556 352 )" mask="url(#clip103)" />
    <path d="M 8.63499412521674 11.7833743635651  C 8.63499412521674 11.7833743635651  8.18557321098865 13.5011609690596  8.18557321098865 13.5011609690596  C 8.18557321098865 13.5011609690596  13.2190874503441 13.9206204890058  13.2190874503441 13.9206204890058  C 13.2190874503441 13.9206204890058  12.7696665361159 12.1029625692388  12.7696665361159 12.1029625692388  C 12.2004000447602 9.95572931237075  11.6710820791136 6.64000167850963  11.101815587758 4.44283276450528  C 11.101815587758 4.44283276450528  10.2429222850109 4.44283276450528  10.2429222850109 4.44283276450528  C 9.73357858221891 6.60005315280046  9.17429922229053 9.74599955239751  8.63499412521674 11.7833743635651  Z " stroke-width="1.49806971409388" stroke="#676d72" fill="none" transform="matrix(1 0 0 1 556 352 )" mask="url(#clip103)" />
  </g>
</svg>