<?xml version="1.0" encoding="utf-8"?>
<svg version="1.1" xmlns:xlink="http://www.w3.org/1999/xlink" width="18px" height="24px" xmlns="http://www.w3.org/2000/svg">
  <defs>
    <mask fill="white" id="clip104">
      <path d="M 0.15757007777097 22.5881637106249  C 0.15757007777097 22.5881637106249  0.197518603480148 0.826204330554447  0.197518603480148 0.826204330554447  C 0.197518603480148 0.826204330554447  6.18979745985575 1.41544508476477  6.18979745985575 1.41544508476477  C 12.5915487047503 2.04463436468427  17.5751272869693 6.30913948413809  17.5751272869693 13.609732557489  C 17.5751272869693 20.9103256308397  12.5915487047503 23.7966066133274  6.46943713981989 23.2073658591171  C 6.46943713981989 23.2073658591171  0.15757007777097 22.5881637106249  0.15757007777097 22.5881637106249  Z M 5.24101997426305 18.9528478710906  C 5.24101997426305 18.9528478710906  5.92014491131886 19.0826805796453  5.92014491131886 19.0826805796453  C 9.30578246517098 19.4122559167458  12.4517288647681 18.0839674369161  12.4517288647681 13.0904017232697  C 12.4517288647681 8.09683600962353  9.30578246517098 5.72988586135534  5.92014491131886 5.35037486711803  C 5.92014491131886 5.35037486711803  5.24101997426305 5.28046494712703  5.24101997426305 5.28046494712703  C 5.24101997426305 5.28046494712703  5.24101997426305 18.9528478710906  5.24101997426305 18.9528478710906  Z " fill-rule="evenodd" />
    </mask>
  </defs>
  <g transform="matrix(1 0 0 1 -578 -353 )">
    <path d="M 0.15757007777097 22.5881637106249  C 0.15757007777097 22.5881637106249  0.197518603480148 0.826204330554447  0.197518603480148 0.826204330554447  C 0.197518603480148 0.826204330554447  6.18979745985575 1.41544508476477  6.18979745985575 1.41544508476477  C 12.5915487047503 2.04463436468427  17.5751272869693 6.30913948413809  17.5751272869693 13.609732557489  C 17.5751272869693 20.9103256308397  12.5915487047503 23.7966066133274  6.46943713981989 23.2073658591171  C 6.46943713981989 23.2073658591171  0.15757007777097 22.5881637106249  0.15757007777097 22.5881637106249  Z M 5.24101997426305 18.9528478710906  C 5.24101997426305 18.9528478710906  5.92014491131886 19.0826805796453  5.92014491131886 19.0826805796453  C 9.30578246517098 19.4122559167458  12.4517288647681 18.0839674369161  12.4517288647681 13.0904017232697  C 12.4517288647681 8.09683600962353  9.30578246517098 5.72988586135534  5.92014491131886 5.35037486711803  C 5.92014491131886 5.35037486711803  5.24101997426305 5.28046494712703  5.24101997426305 5.28046494712703  C 5.24101997426305 5.28046494712703  5.24101997426305 18.9528478710906  5.24101997426305 18.9528478710906  Z " fill-rule="nonzero" fill="#ffffff" stroke="none" transform="matrix(1 0 0 1 578 353 )" />
    <path d="M 0.15757007777097 22.5881637106249  C 0.15757007777097 22.5881637106249  0.197518603480148 0.826204330554447  0.197518603480148 0.826204330554447  C 0.197518603480148 0.826204330554447  6.18979745985575 1.41544508476477  6.18979745985575 1.41544508476477  C 12.5915487047503 2.04463436468427  17.5751272869693 6.30913948413809  17.5751272869693 13.609732557489  C 17.5751272869693 20.9103256308397  12.5915487047503 23.7966066133274  6.46943713981989 23.2073658591171  C 6.46943713981989 23.2073658591171  0.15757007777097 22.5881637106249  0.15757007777097 22.5881637106249  Z " stroke-width="1.49806971409388" stroke="#676d72" fill="none" transform="matrix(1 0 0 1 578 353 )" mask="url(#clip104)" />
    <path d="M 5.24101997426305 18.9528478710906  C 5.24101997426305 18.9528478710906  5.92014491131886 19.0826805796453  5.92014491131886 19.0826805796453  C 9.30578246517098 19.4122559167458  12.4517288647681 18.0839674369161  12.4517288647681 13.0904017232697  C 12.4517288647681 8.09683600962353  9.30578246517098 5.72988586135534  5.92014491131886 5.35037486711803  C 5.92014491131886 5.35037486711803  5.24101997426305 5.28046494712703  5.24101997426305 5.28046494712703  C 5.24101997426305 5.28046494712703  5.24101997426305 18.9528478710906  5.24101997426305 18.9528478710906  Z " stroke-width="1.49806971409388" stroke="#676d72" fill="none" transform="matrix(1 0 0 1 578 353 )" mask="url(#clip104)" />
  </g>
</svg>