<?xml version="1.0" encoding="utf-8"?>
<svg version="1.1" xmlns:xlink="http://www.w3.org/1999/xlink" width="24px" height="26px" xmlns="http://www.w3.org/2000/svg">
  <defs>
    <mask fill="white" id="clip105">
      <path d="M 2.47097577351326 3.42739047725604  C 2.47097577351326 3.42739047725604  5.78670340737426 1.10038885469703  5.78670340737426 1.10038885469703  C 6.78799277721384 0.397943292908849  8.0408381819567 0.154637083871648  9.23226374979026 0.431251049068351  C 13.8463184691994 1.16031164326068  20.3479410283669 7.32237173390035  22.8147624909082 13.2747020645666  C 24.5225619649752 17.389400212611  24.2129608907292 20.6751664521903  22.3453673138254 22.0733648520111  C 22.3453673138254 22.0733648520111  19.0296396799642 24.390379343143  19.0296396799641 24.390379343143  C 18.0278731119865 25.0915628010066  16.7769933521068 25.3381130145481  15.5840793375482 25.069504280199  C 10.9600374867118 24.3404436860067  4.46840205897161 18.1683964639396  2.00158059643047 12.2160661332734  C 0.293781122363271 8.11135511665634  0.603382196609346 4.82558887707705  2.47097577351326 3.42739047725604  Z " fill-rule="evenodd" />
    </mask>
  </defs>
  <g transform="matrix(1 0 0 1 -542 -365 )">
    <path d="M 2.47097577351326 3.42739047725604  C 2.47097577351326 3.42739047725604  5.78670340737426 1.10038885469703  5.78670340737426 1.10038885469703  C 6.78799277721384 0.397943292908849  8.0408381819567 0.154637083871648  9.23226374979026 0.431251049068351  C 13.8463184691994 1.16031164326068  20.3479410283669 7.32237173390035  22.8147624909082 13.2747020645666  C 24.5225619649752 17.389400212611  24.2129608907292 20.6751664521903  22.3453673138254 22.0733648520111  C 22.3453673138254 22.0733648520111  19.0296396799642 24.390379343143  19.0296396799641 24.390379343143  C 18.0278731119865 25.0915628010066  16.7769933521068 25.3381130145481  15.5840793375482 25.069504280199  C 10.9600374867118 24.3404436860067  4.46840205897161 18.1683964639396  2.00158059643047 12.2160661332734  C 0.293781122363271 8.11135511665634  0.603382196609346 4.82558887707705  2.47097577351326 3.42739047725604  Z " fill-rule="nonzero" fill="#ffffff" stroke="none" transform="matrix(1 0 0 1 542 365 )" />
    <path d="M 2.47097577351326 3.42739047725604  C 2.47097577351326 3.42739047725604  5.78670340737426 1.10038885469703  5.78670340737426 1.10038885469703  C 6.78799277721384 0.397943292908849  8.0408381819567 0.154637083871648  9.23226374979026 0.431251049068351  C 13.8463184691994 1.16031164326068  20.3479410283669 7.32237173390035  22.8147624909082 13.2747020645666  C 24.5225619649752 17.389400212611  24.2129608907292 20.6751664521903  22.3453673138254 22.0733648520111  C 22.3453673138254 22.0733648520111  19.0296396799642 24.390379343143  19.0296396799641 24.390379343143  C 18.0278731119865 25.0915628010066  16.7769933521068 25.3381130145481  15.5840793375482 25.069504280199  C 10.9600374867118 24.3404436860067  4.46840205897161 18.1683964639396  2.00158059643047 12.2160661332734  C 0.293781122363271 8.11135511665634  0.603382196609346 4.82558887707705  2.47097577351326 3.42739047725604  Z " stroke-width="1.49806971409388" stroke="#676d72" fill="none" transform="matrix(1 0 0 1 542 365 )" mask="url(#clip105)" />
  </g>
</svg>