<?xml version="1.0" encoding="utf-8"?>
<svg version="1.1" xmlns:xlink="http://www.w3.org/1999/xlink" width="14px" height="26px" xmlns="http://www.w3.org/2000/svg">
  <g transform="matrix(1 0 0 1 -549 -363 )">
    <path d="M 556 363  C 559.92 363  563 368.72  563 376  C 563 383.28  559.92 389  556 389  C 552.08 389  549 383.28  549 376  C 549 368.72  552.08 363  556 363  Z " fill-rule="nonzero" fill="#ffffff" stroke="none" />
    <path d="M 556 363.374517428523  C 559.710270240027 363.374517428523  562.625482571477 368.929729759973  562.625482571477 376  C 562.625482571477 383.070270240027  559.710270240027 388.625482571477  556 388.625482571477  C 552.289729759973 388.625482571477  549.374517428524 383.070270240027  549.374517428524 376  C 549.374517428524 368.929729759973  552.289729759973 363.374517428523  556 363.374517428523  Z " stroke-width="0.749034857046942" stroke="#676d72" fill="none" />
  </g>
</svg>