<?xml version="1.0" encoding="utf-8"?>
<svg version="1.1" xmlns:xlink="http://www.w3.org/1999/xlink" width="56px" height="118px" xmlns="http://www.w3.org/2000/svg">
  <defs>
    <mask fill="white" id="clip106">
      <path d="M 55.1781038437869 104.139721926929  C 55.1960743694774 106.553422974118  53.4850010912385 108.634458042246  51.1133413528787 109.083351983439  C 51.1133413528787 109.083351983439  6.74051642141762 117.282786885246  6.74051642141785 117.282786885246  C 6.43753162458802 117.339504606937  6.12994595737246 117.368046211632  5.82169818842067 117.368046211632  C 3.06563394337581 117.368046211632  0.830687181552548 115.135168417444  0.828134616460375 112.379105354445  C 0.828134616460375 112.379105354445  0.828134616460375 13.4565685671123  0.828134616460375 13.4565685671121  C 0.829453339914608 11.057899472961  2.53608497748337 8.99903919274925  4.89289710736853 8.55288703631163  C 4.89289710736853 8.55288703631163  49.2657220388294 0.343465003077199  49.2657220388296 0.343465003076972  C 49.5687068356599 0.286747281385715  49.8762925028745 0.258205676690523  50.1845402718268 0.258205676690523  C 52.9406045168714 0.258205676690523  55.1755512786949 2.49108347087918  55.1781038437866 5.24714653387787  C 55.1781038437866 5.24714653387787  55.1781038437866 104.139721926929  55.1781038437869 104.139721926929  Z " fill-rule="evenodd" />
    </mask>
  </defs>
  <g transform="matrix(1 0 0 1 -476 -278 )">
    <path d="M 55.1781038437869 104.139721926929  C 55.1960743694774 106.553422974118  53.4850010912385 108.634458042246  51.1133413528787 109.083351983439  C 51.1133413528787 109.083351983439  6.74051642141762 117.282786885246  6.74051642141785 117.282786885246  C 6.43753162458802 117.339504606937  6.12994595737246 117.368046211632  5.82169818842067 117.368046211632  C 3.06563394337581 117.368046211632  0.830687181552548 115.135168417444  0.828134616460375 112.379105354445  C 0.828134616460375 112.379105354445  0.828134616460375 13.4565685671123  0.828134616460375 13.4565685671121  C 0.829453339914608 11.057899472961  2.53608497748337 8.99903919274925  4.89289710736853 8.55288703631163  C 4.89289710736853 8.55288703631163  49.2657220388294 0.343465003077199  49.2657220388296 0.343465003076972  C 49.5687068356599 0.286747281385715  49.8762925028745 0.258205676690523  50.1845402718268 0.258205676690523  C 52.9406045168714 0.258205676690523  55.1755512786949 2.49108347087918  55.1781038437866 5.24714653387787  C 55.1781038437866 5.24714653387787  55.1781038437866 104.139721926929  55.1781038437869 104.139721926929  Z " fill-rule="nonzero" fill="#ffffff" stroke="none" transform="matrix(1 0 0 1 476 278 )" />
    <path d="M 55.1781038437869 104.139721926929  C 55.1960743694774 106.553422974118  53.4850010912385 108.634458042246  51.1133413528787 109.083351983439  C 51.1133413528787 109.083351983439  6.74051642141762 117.282786885246  6.74051642141785 117.282786885246  C 6.43753162458802 117.339504606937  6.12994595737246 117.368046211632  5.82169818842067 117.368046211632  C 3.06563394337581 117.368046211632  0.830687181552548 115.135168417444  0.828134616460375 112.379105354445  C 0.828134616460375 112.379105354445  0.828134616460375 13.4565685671123  0.828134616460375 13.4565685671121  C 0.829453339914608 11.057899472961  2.53608497748337 8.99903919274925  4.89289710736853 8.55288703631163  C 4.89289710736853 8.55288703631163  49.2657220388294 0.343465003077199  49.2657220388296 0.343465003076972  C 49.5687068356599 0.286747281385715  49.8762925028745 0.258205676690523  50.1845402718268 0.258205676690523  C 52.9406045168714 0.258205676690523  55.1755512786949 2.49108347087918  55.1781038437866 5.24714653387787  C 55.1781038437866 5.24714653387787  55.1781038437866 104.139721926929  55.1781038437869 104.139721926929  Z " stroke-width="1.49806971409388" stroke="#676d72" fill="none" transform="matrix(1 0 0 1 476 278 )" mask="url(#clip106)" />
  </g>
</svg>