<?xml version="1.0" encoding="utf-8"?>
<svg version="1.1" xmlns:xlink="http://www.w3.org/1999/xlink" width="39px" height="34px" xmlns="http://www.w3.org/2000/svg">
  <defs>
    <mask fill="white" id="clip107">
      <path d="M 33.1665228828463 0.181688139926337  C 32.8548807262125 0.181688139926337  32.5439228180082 0.210861793152844  32.2377189056119 0.268827281374115  C 32.2377189056119 0.268827281374115  4.62330050914784 5.32231578358392  4.62330050914807 5.32231578358369  C 2.2625183734242 5.76424402339194  0.550775721437731 7.8242088325228  0.548550886812563 10.2259973143848  C 0.548550886812563 10.2259973143848  0.548550886812563 28.3027051977842  0.548550886812563 28.302705197784  C 0.548547384958056 28.3051195100638  0.548545634030006 28.3075338245374  0.548545634030006 28.3099481393569  C 0.548545634030006 31.0678183302819  2.7842411567517 33.3035138530033  5.54211134767638 33.3035138530033  C 5.85375503371233 33.3035138530033  6.1647144612316 33.2743399134358  6.47091982319716 33.2163738600123  C 6.47091982319716 33.2163738600123  26.7447966206009 29.5411094947685  26.7447966206009 29.5411094947685  C 26.7447966206009 29.5411094947685  29.681013260225 32.4773261343926  29.681013260225 32.4773261343926  C 29.681013260225 32.4773261343926  31.9880406199295 28.5523834834664  31.9880406199295 28.5523834834664  C 31.9880406199295 28.5523834834664  34.085338219661 28.1528982263746  34.0853382196613 28.1528982263746  C 36.4461203553848 27.7109699865664  38.1578630073715 25.6510051774355  38.1600878419963 23.249216695574  C 38.1600878419963 23.249216695574  38.1600878419963 5.17250881217456  38.1600878419964 5.17250881217456  C 38.1585723867594 2.41571098217264  35.9233211293829 0.181688139926337  33.1665228828463 0.181688139926337  Z " fill-rule="evenodd" />
    </mask>
  </defs>
  <g transform="matrix(1 0 0 1 -507 -336 )">
    <path d="M 33.1665228828463 0.181688139926337  C 32.8548807262125 0.181688139926337  32.5439228180082 0.210861793152844  32.2377189056119 0.268827281374115  C 32.2377189056119 0.268827281374115  4.62330050914784 5.32231578358392  4.62330050914807 5.32231578358369  C 2.2625183734242 5.76424402339194  0.550775721437731 7.8242088325228  0.548550886812563 10.2259973143848  C 0.548550886812563 10.2259973143848  0.548550886812563 28.3027051977842  0.548550886812563 28.302705197784  C 0.548547384958056 28.3051195100638  0.548545634030006 28.3075338245374  0.548545634030006 28.3099481393569  C 0.548545634030006 31.0678183302819  2.7842411567517 33.3035138530033  5.54211134767638 33.3035138530033  C 5.85375503371233 33.3035138530033  6.1647144612316 33.2743399134358  6.47091982319716 33.2163738600123  C 6.47091982319716 33.2163738600123  26.7447966206009 29.5411094947685  26.7447966206009 29.5411094947685  C 26.7447966206009 29.5411094947685  29.681013260225 32.4773261343926  29.681013260225 32.4773261343926  C 29.681013260225 32.4773261343926  31.9880406199295 28.5523834834664  31.9880406199295 28.5523834834664  C 31.9880406199295 28.5523834834664  34.085338219661 28.1528982263746  34.0853382196613 28.1528982263746  C 36.4461203553848 27.7109699865664  38.1578630073715 25.6510051774355  38.1600878419963 23.249216695574  C 38.1600878419963 23.249216695574  38.1600878419963 5.17250881217456  38.1600878419964 5.17250881217456  C 38.1585723867594 2.41571098217264  35.9233211293829 0.181688139926337  33.1665228828463 0.181688139926337  Z " fill-rule="nonzero" fill="#ffffff" stroke="none" transform="matrix(1 0 0 1 507 336 )" />
    <path d="M 33.1665228828463 0.181688139926337  C 32.8548807262125 0.181688139926337  32.5439228180082 0.210861793152844  32.2377189056119 0.268827281374115  C 32.2377189056119 0.268827281374115  4.62330050914784 5.32231578358392  4.62330050914807 5.32231578358369  C 2.2625183734242 5.76424402339194  0.550775721437731 7.8242088325228  0.548550886812563 10.2259973143848  C 0.548550886812563 10.2259973143848  0.548550886812563 28.3027051977842  0.548550886812563 28.302705197784  C 0.548547384958056 28.3051195100638  0.548545634030006 28.3075338245374  0.548545634030006 28.3099481393569  C 0.548545634030006 31.0678183302819  2.7842411567517 33.3035138530033  5.54211134767638 33.3035138530033  C 5.85375503371233 33.3035138530033  6.1647144612316 33.2743399134358  6.47091982319716 33.2163738600123  C 6.47091982319716 33.2163738600123  26.7447966206009 29.5411094947685  26.7447966206009 29.5411094947685  C 26.7447966206009 29.5411094947685  29.681013260225 32.4773261343926  29.681013260225 32.4773261343926  C 29.681013260225 32.4773261343926  31.9880406199295 28.5523834834664  31.9880406199295 28.5523834834664  C 31.9880406199295 28.5523834834664  34.085338219661 28.1528982263746  34.0853382196613 28.1528982263746  C 36.4461203553848 27.7109699865664  38.1578630073715 25.6510051774355  38.1600878419963 23.249216695574  C 38.1600878419963 23.249216695574  38.1600878419963 5.17250881217456  38.1600878419964 5.17250881217456  C 38.1585723867594 2.41571098217264  35.9233211293829 0.181688139926337  33.1665228828463 0.181688139926337  Z " stroke-width="1.49806971409388" stroke="#676d72" fill="none" transform="matrix(1 0 0 1 507 336 )" mask="url(#clip107)" />
  </g>
</svg>