<?xml version="1.0" encoding="utf-8"?>
<svg version="1.1" xmlns:xlink="http://www.w3.org/1999/xlink" width="56px" height="40px" xmlns="http://www.w3.org/2000/svg">
  <defs>
    <mask fill="white" id="clip108">
      <path d="M 50.2841258578444 0.910436580685428  C 49.982636998368 0.910436580685428  49.68176757843 0.937740262167608  49.3852039389024 0.992013092374009  C 49.3852039389024 0.992013092374009  5.01237900744127 9.19144799418109  5.0123790074415 9.19144799418086  C 2.65186893399232 9.63829794310232  0.944132852978328 11.7026865226078  0.947616516533344 14.1051166564091  C 0.947616516533344 14.1051166564091  0.947616516533344 32.1618502769541  0.947616516533344 32.1618502769541  C 0.950169081625518 34.9179133399525  3.18511584344878 37.1507911341409  5.94118008849341 37.1507911341409  C 6.24942785744565 37.1507911341409  6.55701352466031 37.122249529446  6.85999832149059 37.0655318077547  C 6.85999832149059 37.0655318077547  12.8522771778662 35.9369859564706  12.8522771778662 35.9369859564706  C 12.8522771778662 35.9369859564706  16.3078246517093 39.4025205617411  16.3078246517093 39.4025205617411  C 16.3078246517093 39.4025205617411  19.0343115313603 34.7784787109047  19.0343115313603 34.7784787109047  C 19.0343115313603 34.7784787109047  51.212848990097 28.8660969059474  51.212848990097 28.8660969059472  C 53.5733590635462 28.4192469570255  55.2810951445601 26.35485837752  55.2776114810049 23.9524282437194  C 55.2776114810049 23.9524282437194  55.2776114810049 5.87572036031975  55.2776114810049 5.87572036031975  C 55.262054317923 3.12893259982025  53.030957674056 0.910436580685428  50.2841258578444 0.910436580685428  Z " fill-rule="evenodd" />
    </mask>
  </defs>
  <g transform="matrix(1 0 0 1 -453 -294 )">
    <path d="M 50.2841258578444 0.910436580685428  C 49.982636998368 0.910436580685428  49.68176757843 0.937740262167608  49.3852039389024 0.992013092374009  C 49.3852039389024 0.992013092374009  5.01237900744127 9.19144799418109  5.0123790074415 9.19144799418086  C 2.65186893399232 9.63829794310232  0.944132852978328 11.7026865226078  0.947616516533344 14.1051166564091  C 0.947616516533344 14.1051166564091  0.947616516533344 32.1618502769541  0.947616516533344 32.1618502769541  C 0.950169081625518 34.9179133399525  3.18511584344878 37.1507911341409  5.94118008849341 37.1507911341409  C 6.24942785744565 37.1507911341409  6.55701352466031 37.122249529446  6.85999832149059 37.0655318077547  C 6.85999832149059 37.0655318077547  12.8522771778662 35.9369859564706  12.8522771778662 35.9369859564706  C 12.8522771778662 35.9369859564706  16.3078246517093 39.4025205617411  16.3078246517093 39.4025205617411  C 16.3078246517093 39.4025205617411  19.0343115313603 34.7784787109047  19.0343115313603 34.7784787109047  C 19.0343115313603 34.7784787109047  51.212848990097 28.8660969059474  51.212848990097 28.8660969059472  C 53.5733590635462 28.4192469570255  55.2810951445601 26.35485837752  55.2776114810049 23.9524282437194  C 55.2776114810049 23.9524282437194  55.2776114810049 5.87572036031975  55.2776114810049 5.87572036031975  C 55.262054317923 3.12893259982025  53.030957674056 0.910436580685428  50.2841258578444 0.910436580685428  Z " fill-rule="nonzero" fill="#ffffff" stroke="none" transform="matrix(1 0 0 1 453 294 )" />
    <path d="M 50.2841258578444 0.910436580685428  C 49.982636998368 0.910436580685428  49.68176757843 0.937740262167608  49.3852039389024 0.992013092374009  C 49.3852039389024 0.992013092374009  5.01237900744127 9.19144799418109  5.0123790074415 9.19144799418086  C 2.65186893399232 9.63829794310232  0.944132852978328 11.7026865226078  0.947616516533344 14.1051166564091  C 0.947616516533344 14.1051166564091  0.947616516533344 32.1618502769541  0.947616516533344 32.1618502769541  C 0.950169081625518 34.9179133399525  3.18511584344878 37.1507911341409  5.94118008849341 37.1507911341409  C 6.24942785744565 37.1507911341409  6.55701352466031 37.122249529446  6.85999832149059 37.0655318077547  C 6.85999832149059 37.0655318077547  12.8522771778662 35.9369859564706  12.8522771778662 35.9369859564706  C 12.8522771778662 35.9369859564706  16.3078246517093 39.4025205617411  16.3078246517093 39.4025205617411  C 16.3078246517093 39.4025205617411  19.0343115313603 34.7784787109047  19.0343115313603 34.7784787109047  C 19.0343115313603 34.7784787109047  51.212848990097 28.8660969059474  51.212848990097 28.8660969059472  C 53.5733590635462 28.4192469570255  55.2810951445601 26.35485837752  55.2776114810049 23.9524282437194  C 55.2776114810049 23.9524282437194  55.2776114810049 5.87572036031975  55.2776114810049 5.87572036031975  C 55.262054317923 3.12893259982025  53.030957674056 0.910436580685428  50.2841258578444 0.910436580685428  Z " stroke-width="1.49806971409388" stroke="#676d72" fill="none" transform="matrix(1 0 0 1 453 294 )" mask="url(#clip108)" />
  </g>
</svg>