<?xml version="1.0" encoding="utf-8"?>
<svg version="1.1" xmlns:xlink="http://www.w3.org/1999/xlink" width="31px" height="25px" xmlns="http://www.w3.org/2000/svg">
  <g transform="matrix(1 0 0 1 -885 -387 )">
    <path d="M 0.137274100598802 9.43630056509824  L 27.6618083142171 23.1386448833437  C 28.7220694958321 21.009929418884  29.2739087587079 18.6642209080035  29.2739087587079 16.2860738768322  C 29.2739087587079 10.4534992712254  25.9725917726815 5.12345742225011  20.7507133665307 2.52520561741153  C 18.6219979020716 1.4649444357965  16.2762893911903 0.913105172920723  13.8981423600194 0.913105172920723  C 8.06556775441231 0.913105172920723  2.73552590543716 4.21442215894717  0.137274100598802 9.43630056509824  Z " fill-rule="nonzero" fill="#ffffff" stroke="none" transform="matrix(1 0 0 1 885 387 )" />
    <path d="M 27.6618083142171 23.1386448833437  C 28.7220694958321 21.009929418884  29.2739087587079 18.6642209080035  29.2739087587079 16.2860738768322  C 29.2739087587079 10.4534992712254  25.9725917726815 5.12345742225011  20.7507133665307 2.52520561741153  C 18.6219979020716 1.4649444357965  16.2762893911903 0.913105172920723  13.8981423600194 0.913105172920723  C 8.06556775441231 0.913105172920723  2.73552590543716 4.21442215894717  0.137274100598802 9.43630056509824  " stroke-width="0.749034857046942" stroke="#676d72" fill="none" transform="matrix(1 0 0 1 885 387 )" />
  </g>
</svg>