<?xml version="1.0" encoding="utf-8"?>
<svg version="1.1" xmlns:xlink="http://www.w3.org/1999/xlink" width="26px" height="15px" xmlns="http://www.w3.org/2000/svg">
  <g transform="matrix(1 0 0 1 -841 -400 )">
    <path d="M 0.0740502433839083 11.8564314888379  L 24.482599451687 13.4244111229227  C 24.4993532597036 13.1635671640502  24.5077366283497 12.9022529546867  24.5077366283497 12.6408715074426  C 24.5077366283497 6.19006242192927  19.4951920862769 0.849496738147536  13.0573210988642 0.441140267442734  C 6.32173068287125 0.0136852068046664  0.512279457510658 5.12153347648723  0.0740502433839083 11.8564314888379  Z " fill-rule="nonzero" fill="#ffffff" stroke="none" transform="matrix(1 0 0 1 841 400 )" />
    <path d="M 24.482599451687 13.4244111229227  C 24.4993532597036 13.1635671640502  24.5077366283497 12.9022529546867  24.5077366283497 12.6408715074426  C 24.5077366283497 6.19006242192927  19.4951920862769 0.849496738147536  13.0573210988642 0.441140267442734  C 6.32173068287125 0.0136852068046664  0.512279457510658 5.12153347648723  0.0740502433839083 11.8564314888379  " stroke-width="0.749034857046942" stroke="#676d72" fill="none" transform="matrix(1 0 0 1 841 400 )" />
  </g>
</svg>