<?xml version="1.0" encoding="utf-8"?>
<svg version="1.1" xmlns:xlink="http://www.w3.org/1999/xlink" width="49px" height="44px" xmlns="http://www.w3.org/2000/svg">
  <g transform="matrix(1 0 0 1 -824 -340 )">
    <path d="M 0.0859396855593104 10.4555474738431  L 41.9819560230516 42.6041235382979  C 50.858733769888 31.0346420169644  48.6767783322578 14.459828887261  37.1082358865328 5.58182733732451  C 32.4971127046308 2.04113324678337  26.8460502832584 0.121800378586613  21.0323619839539 0.121800378586613  C 12.8231886812505 0.121800378586613  5.08130945089181 3.94119353646602  0.0859396855593104 10.4555474738431  Z " fill-rule="nonzero" fill="#ffffff" stroke="none" transform="matrix(1 0 0 1 824 340 )" />
    <path d="M 41.9819560230516 42.6041235382979  C 50.858733769888 31.0346420169644  48.6767783322578 14.459828887261  37.1082358865328 5.58182733732451  C 32.4971127046308 2.04113324678337  26.8460502832584 0.121800378586613  21.0323619839539 0.121800378586613  C 12.8231886812505 0.121800378586613  5.08130945089181 3.94119353646602  0.0859396855593104 10.4555474738431  " stroke-width="0.749034857046942" stroke="#676d72" fill="none" transform="matrix(1 0 0 1 824 340 )" />
  </g>
</svg>