<?xml version="1.0" encoding="utf-8"?>
<svg version="1.1" xmlns:xlink="http://www.w3.org/1999/xlink" width="161px" height="101px" xmlns="http://www.w3.org/2000/svg">
  <defs>
    <mask fill="white" id="clip109">
      <path d="M 1.80264924746837 95.2189475745538  C 1.80264924746837 95.2189475745538  8.72373132658197 100.422243048173  8.72373132658197 100.422243048173  C 9.25660735010877 100.865398459873  9.96541978951461 101.035218106814  10.6412605606222 100.881651093829  C 10.6412605606222 100.881651093829  158.930187993062 67.0352626867343  158.930187993062 67.0352626867343  C 159.940224518702 66.8028817076304  160.656463354369 65.9044780813895  160.657961729984 64.8680551670116  C 160.657961729984 64.8680551670116  160.657961729984 7.86150898002575  160.657961729984 7.86150898002575  C 160.661245669831 7.15897124081903  160.326854608987 6.49762003159253  159.759119901528 6.08379958596765  C 159.759119901528 6.08379958596765  152.838037822414 0.880504112348262  152.838037822414 0.880504112348262  C 152.305161798887 0.437348700648499  151.596349359481 0.267529053707449  150.920508588374 0.421096066692826  C 150.920508588374 0.421096066692826  2.63158115593365 34.227535948078  2.63158115593365 34.227535948078  C 1.62154463029344 34.4599169271819  0.90530579462677 35.3583205534228  0.903807419012082 36.3947434678005  C 0.903807419012082 36.3947434678005  0.903807419012082 93.4512253119231  0.903807419012082 93.4512253119231  C 0.903726267343814 94.1502451446822  1.23776916063355 94.8071961681521  1.80264924746837 95.2189475745538  Z " fill-rule="evenodd" />
    </mask>
  </defs>
  <g transform="matrix(1 0 0 1 -852 -272 )">
    <path d="M 1.80264924746837 95.2189475745538  C 1.80264924746837 95.2189475745538  8.72373132658197 100.422243048173  8.72373132658197 100.422243048173  C 9.25660735010877 100.865398459873  9.96541978951461 101.035218106814  10.6412605606222 100.881651093829  C 10.6412605606222 100.881651093829  158.930187993062 67.0352626867343  158.930187993062 67.0352626867343  C 159.940224518702 66.8028817076304  160.656463354369 65.9044780813895  160.657961729984 64.8680551670116  C 160.657961729984 64.8680551670116  160.657961729984 7.86150898002575  160.657961729984 7.86150898002575  C 160.661245669831 7.15897124081903  160.326854608987 6.49762003159253  159.759119901528 6.08379958596765  C 159.759119901528 6.08379958596765  152.838037822414 0.880504112348262  152.838037822414 0.880504112348262  C 152.305161798887 0.437348700648499  151.596349359481 0.267529053707449  150.920508588374 0.421096066692826  C 150.920508588374 0.421096066692826  2.63158115593365 34.227535948078  2.63158115593365 34.227535948078  C 1.62154463029344 34.4599169271819  0.90530579462677 35.3583205534228  0.903807419012082 36.3947434678005  C 0.903807419012082 36.3947434678005  0.903807419012082 93.4512253119231  0.903807419012082 93.4512253119231  C 0.903726267343814 94.1502451446822  1.23776916063355 94.8071961681521  1.80264924746837 95.2189475745538  Z " fill-rule="nonzero" fill="#ffffff" stroke="none" transform="matrix(1 0 0 1 852 272 )" />
    <path d="M 1.80264924746837 95.2189475745538  C 1.80264924746837 95.2189475745538  8.72373132658197 100.422243048173  8.72373132658197 100.422243048173  C 9.25660735010877 100.865398459873  9.96541978951461 101.035218106814  10.6412605606222 100.881651093829  C 10.6412605606222 100.881651093829  158.930187993062 67.0352626867343  158.930187993062 67.0352626867343  C 159.940224518702 66.8028817076304  160.656463354369 65.9044780813895  160.657961729984 64.8680551670116  C 160.657961729984 64.8680551670116  160.657961729984 7.86150898002575  160.657961729984 7.86150898002575  C 160.661245669831 7.15897124081903  160.326854608987 6.49762003159253  159.759119901528 6.08379958596765  C 159.759119901528 6.08379958596765  152.838037822414 0.880504112348262  152.838037822414 0.880504112348262  C 152.305161798887 0.437348700648499  151.596349359481 0.267529053707449  150.920508588374 0.421096066692826  C 150.920508588374 0.421096066692826  2.63158115593365 34.227535948078  2.63158115593365 34.227535948078  C 1.62154463029344 34.4599169271819  0.90530579462677 35.3583205534228  0.903807419012082 36.3947434678005  C 0.903807419012082 36.3947434678005  0.903807419012082 93.4512253119231  0.903807419012082 93.4512253119231  C 0.903726267343814 94.1502451446822  1.23776916063355 94.8071961681521  1.80264924746837 95.2189475745538  Z " stroke-width="1.49806971409388" stroke="#676d72" fill="none" transform="matrix(1 0 0 1 852 272 )" mask="url(#clip109)" />
  </g>
</svg>