<?xml version="1.0" encoding="utf-8"?>
<svg version="1.1" xmlns:xlink="http://www.w3.org/1999/xlink" width="154px" height="96px" xmlns="http://www.w3.org/2000/svg">
  <defs>
    <mask fill="white" id="clip110">
      <path d="M 153.646995468024 59.6447854305377  C 153.64549709241 60.6812083449151  152.929258256743 61.5796119711565  151.919221731103 61.8119929502602  C 151.919221731103 61.8119929502602  3.63029429866288 95.6184328316454  3.63029429866276 95.6184328316454  C 3.46651392509261 95.6561144560656  3.29899466350923 95.6751368910586  3.13093540138527 95.6751368910586  C 1.90218210055468 95.6751368910586  0.905583257656758 94.6799773294999  0.903807419011969 93.4512253119228  C 0.903807419011969 93.4512253119228  0.903807419011969 36.3947434678003  0.903807419011969 36.3947434678003  C 0.905305794626542 35.3583205534228  1.62154463029333 34.4599169271817  2.63158115593353 34.2275359480777  C 2.63158115593353 34.2275359480777  150.920508588374 0.421096066692598  150.920508588374 0.421096066692598  C 151.084288961944 0.383414442272397  151.251808223527 0.364392007279321  151.419867485651 0.364392007279321  C 152.648620786482 0.364392007279321  153.64521962938 1.35955156883824  153.646995468024 2.58830358641512  C 153.646995468024 2.58830358641512  153.646995468024 59.6447854305377  153.646995468024 59.6447854305377  Z " fill-rule="evenodd" />
    </mask>
  </defs>
  <g transform="matrix(1 0 0 1 -852 -272 )">
    <path d="M 153.646995468024 59.6447854305377  C 153.64549709241 60.6812083449151  152.929258256743 61.5796119711565  151.919221731103 61.8119929502602  C 151.919221731103 61.8119929502602  3.63029429866288 95.6184328316454  3.63029429866276 95.6184328316454  C 3.46651392509261 95.6561144560656  3.29899466350923 95.6751368910586  3.13093540138527 95.6751368910586  C 1.90218210055468 95.6751368910586  0.905583257656758 94.6799773294999  0.903807419011969 93.4512253119228  C 0.903807419011969 93.4512253119228  0.903807419011969 36.3947434678003  0.903807419011969 36.3947434678003  C 0.905305794626542 35.3583205534228  1.62154463029333 34.4599169271817  2.63158115593353 34.2275359480777  C 2.63158115593353 34.2275359480777  150.920508588374 0.421096066692598  150.920508588374 0.421096066692598  C 151.084288961944 0.383414442272397  151.251808223527 0.364392007279321  151.419867485651 0.364392007279321  C 152.648620786482 0.364392007279321  153.64521962938 1.35955156883824  153.646995468024 2.58830358641512  C 153.646995468024 2.58830358641512  153.646995468024 59.6447854305377  153.646995468024 59.6447854305377  Z " fill-rule="nonzero" fill="#ffffff" stroke="none" transform="matrix(1 0 0 1 852 272 )" />
    <path d="M 153.646995468024 59.6447854305377  C 153.64549709241 60.6812083449151  152.929258256743 61.5796119711565  151.919221731103 61.8119929502602  C 151.919221731103 61.8119929502602  3.63029429866288 95.6184328316454  3.63029429866276 95.6184328316454  C 3.46651392509261 95.6561144560656  3.29899466350923 95.6751368910586  3.13093540138527 95.6751368910586  C 1.90218210055468 95.6751368910586  0.905583257656758 94.6799773294999  0.903807419011969 93.4512253119228  C 0.903807419011969 93.4512253119228  0.903807419011969 36.3947434678003  0.903807419011969 36.3947434678003  C 0.905305794626542 35.3583205534228  1.62154463029333 34.4599169271817  2.63158115593353 34.2275359480777  C 2.63158115593353 34.2275359480777  150.920508588374 0.421096066692598  150.920508588374 0.421096066692598  C 151.084288961944 0.383414442272397  151.251808223527 0.364392007279321  151.419867485651 0.364392007279321  C 152.648620786482 0.364392007279321  153.64521962938 1.35955156883824  153.646995468024 2.58830358641512  C 153.646995468024 2.58830358641512  153.646995468024 59.6447854305377  153.646995468024 59.6447854305377  Z " stroke-width="1.49806971409388" stroke="#676d72" fill="none" transform="matrix(1 0 0 1 852 272 )" mask="url(#clip110)" />
  </g>
</svg>