<?xml version="1.0" encoding="utf-8"?>
<svg version="1.1" xmlns:xlink="http://www.w3.org/1999/xlink" width="28px" height="22px" xmlns="http://www.w3.org/2000/svg">
  <g transform="matrix(1 0 0 1 -951 -395 )">
    <path d="M 26.2885357802272 8.34739551278449  L 2.08971633189731 20.4018631455267  C 1.15595981444278 18.5290995047978  0.669927601610425 16.4650558425301  0.669927601610425 14.3724151930335  C 0.669927601610425 9.24520974440816  3.57174242064809 4.55968023086098  8.16189223969127 2.27521960499053  C 10.0346558804202 1.34146308753611  12.0986995426881 0.855430874703643  14.1913401921845 0.855430874703643  C 19.3185456408099 0.855430874703643  24.004075154357 3.7572456937412  26.2885357802272 8.34739551278449  Z " fill-rule="nonzero" fill="#ffffff" stroke="none" transform="matrix(1 0 0 1 951 395 )" />
    <path d="M 2.08971633189731 20.4018631455267  C 1.15595981444278 18.5290995047978  0.669927601610425 16.4650558425301  0.669927601610425 14.3724151930335  C 0.669927601610425 9.24520974440816  3.57174242064809 4.55968023086098  8.16189223969127 2.27521960499053  C 10.0346558804202 1.34146308753611  12.0986995426881 0.855430874703643  14.1913401921845 0.855430874703643  C 19.3185456408099 0.855430874703643  24.004075154357 3.7572456937412  26.2885357802272 8.34739551278449  " stroke-width="0.749034857046942" stroke="#676d72" fill="none" transform="matrix(1 0 0 1 951 395 )" />
  </g>
</svg>