<?xml version="1.0" encoding="utf-8"?>
<svg version="1.1" xmlns:xlink="http://www.w3.org/1999/xlink" width="21px" height="37px" xmlns="http://www.w3.org/2000/svg">
  <g transform="matrix(1 0 0 1 -962 -371 )">
    <path d="M 19.1235942483077 0.278716499748043  L 16.9364124657305 35.9028143009007  C 7.51865401893212 35.3291306495003  0.174549119062362 27.5240458208325  0.174549119062362 18.0888305559788  C 0.174549119062362 17.7246894940999  0.185693738073496 17.3606337230765  0.207967325015488 16.9971745090359  C 0.817979573924163 7.15869618148963  9.28470073039148 -0.324562116253901  19.1235942483077 0.278716499748043  Z " fill-rule="nonzero" fill="#ffffff" stroke="none" transform="matrix(1 0 0 1 962 371 )" />
    <path d="M 16.9364124657305 35.9028143009007  C 7.51865401893212 35.3291306495003  0.174549119062362 27.5240458208325  0.174549119062362 18.0888305559788  C 0.174549119062362 17.7246894940999  0.185693738073496 17.3606337230765  0.207967325015488 16.9971745090359  C 0.817979573924163 7.15869618148963  9.28470073039148 -0.324562116253901  19.1235942483077 0.278716499748043  " stroke-width="0.749034857046942" stroke="#676d72" fill="none" transform="matrix(1 0 0 1 962 371 )" />
  </g>
</svg>