<?xml version="1.0" encoding="utf-8"?>
<svg version="1.1" xmlns:xlink="http://www.w3.org/1999/xlink" width="43px" height="39px" xmlns="http://www.w3.org/2000/svg">
  <g transform="matrix(1 0 0 1 -980 -355 )">
    <path d="M 41.6813349745426 9.32767302635261  L 4.83880713926021 37.5912549655907  C 1.7293151672618 33.538060607397  0.0439087310249988 28.5722109024559  0.0439087310249988 23.4636568184496  C 0.0439087310249988 16.2440319928701  3.4034891696449 9.43552245647084  9.13327365299608 5.0431936440441  C 13.1873044546238 1.93137336108293  18.1550580951164 0.244595393337931  23.2656932037888 0.244595393337931  C 30.4825333040001 0.244595393337931  37.2887454131376 3.601597758156  41.6813349745426 9.32767302635261  Z " fill-rule="nonzero" fill="#ffffff" stroke="none" transform="matrix(1 0 0 1 980 355 )" />
    <path d="M 4.83880713926021 37.5912549655907  C 1.7293151672618 33.538060607397  0.0439087310249988 28.5722109024559  0.0439087310249988 23.4636568184496  C 0.0439087310249988 16.2440319928701  3.4034891696449 9.43552245647084  9.13327365299608 5.0431936440441  C 13.1873044546238 1.93137336108293  18.1550580951164 0.244595393337931  23.2656932037888 0.244595393337931  C 30.4825333040001 0.244595393337931  37.2887454131376 3.601597758156  41.6813349745426 9.32767302635261  " stroke-width="0.749034857046942" stroke="#676d72" fill="none" transform="matrix(1 0 0 1 980 355 )" />
  </g>
</svg>