<?xml version="1.0" encoding="utf-8"?>
<svg version="1.1" xmlns:xlink="http://www.w3.org/1999/xlink" width="24px" height="20px" xmlns="http://www.w3.org/2000/svg">
  <g transform="matrix(1 0 0 1 -948 -360 )">
    <path d="M 22.0378783640128 5.30641190622714  L 2.75272757791083 18.2297599731437  C -0.813933659882196 12.9011502472265  0.612133829129789 5.69034504416595  5.93862250321729 2.12051698092068  C 7.84905016246205 0.839000574160764  10.0974992513321 0.15471754026612  12.3979379360186 0.15471754026612  C 16.2698491568806 0.15471754026612  19.8862604346342 2.08736906895183  22.0378783640128 5.30641190622714  Z " fill-rule="nonzero" fill="#ffffff" stroke="none" transform="matrix(1 0 0 1 948 360 )" />
    <path d="M 2.75272757791083 18.2297599731437  C -0.813933659882196 12.9011502472265  0.612133829129789 5.69034504416595  5.93862250321729 2.12051698092068  C 7.84905016246205 0.839000574160764  10.0974992513321 0.15471754026612  12.3979379360186 0.15471754026612  C 16.2698491568806 0.15471754026612  19.8862604346342 2.08736906895183  22.0378783640128 5.30641190622714  " stroke-width="0.749034857046942" stroke="#676d72" fill="none" transform="matrix(1 0 0 1 948 360 )" />
  </g>
</svg>