<?xml version="1.0" encoding="utf-8"?>
<svg version="1.1" xmlns:xlink="http://www.w3.org/1999/xlink" width="21px" height="67px" xmlns="http://www.w3.org/2000/svg">
  <g transform="matrix(1 0 0 1 -919 -353 )">
    <path d="M 19.7881441280143 65.8873720136519  L 1 65.8574106193701  L 1 4.93590891288545  C 0.763708493531794 4.40415582244987  1.13270312461248 3.94394903537159  1.65151345605113 3.82733732445604  L 18.3999328596207 0.032227382084784  C 18.4818825772113 0.0138074036813123  18.5656190059367 0.0045125661097245  18.649613361804 0.0045125661097245  C 19.2775306005267 0.0045125661097245  19.7869051079171 0.512882954223414  19.7881441280143 1.1407989705142  L 19.7881441280143 65.8873720136519  Z " fill-rule="nonzero" fill="#ffffff" stroke="none" transform="matrix(1 0 0 1 919 353 )" />
    <path d="M 1 65.8574106193701  L 1 4.93590891288545  C 0.763708493531794 4.40415582244987  1.13270312461248 3.94394903537159  1.65151345605113 3.82733732445604  L 18.3999328596207 0.032227382084784  C 18.4818825772113 0.0138074036813123  18.5656190059367 0.0045125661097245  18.649613361804 0.0045125661097245  C 19.2775306005267 0.0045125661097245  19.7869051079171 0.512882954223414  19.7881441280143 1.1407989705142  L 19.7881441280143 65.8873720136519  " stroke-width="0.749034857046942" stroke="#676d72" fill="none" transform="matrix(1 0 0 1 919 353 )" />
  </g>
</svg>