<?xml version="1.0" encoding="utf-8"?>
<svg version="1.1" xmlns:xlink="http://www.w3.org/1999/xlink" width="39px" height="49px" xmlns="http://www.w3.org/2000/svg">
  <defs>
    <mask fill="white" id="clip111">
      <path d="M 0.421543669221705 48.1506322385724  C 0.421543669221705 48.1506322385724  13.1052005818833 3.16859229004649  13.1052005818833 3.16859229004649  C 13.1052005818833 3.16859229004649  25.5991019974263 0.032633021876336  25.5991019974263 0.032633021876336  C 25.5991019974263 0.032633021876336  38.2627846472333 38.2633721255522  38.2627846472333 38.2633721255522  C 38.2627846472333 38.2633721255522  27.9460778828401 41.0198203994853  27.9460778828401 41.0198203994853  C 27.9460778828401 41.0198203994853  25.589114865999 32.2710932691771  25.589114865999 32.2710932691771  C 25.589114865999 32.2710932691771  12.7656381133553 35.4969367201925  12.7656381133553 35.4969367201925  C 12.7656381133553 35.4969367201925  10.4086750965142 45.484068147485  10.4086750965142 45.484068147485  C 10.4086750965142 45.484068147485  0.421543669221705 48.1506322385724  0.421543669221705 48.1506322385724  Z M 15.522086387288 23.7720444245508  C 15.522086387288 23.7720444245508  14.6432188216863 27.4273345269401  14.6432188216863 27.4273345269401  C 14.6432188216863 27.4273345269401  23.7315084205226 25.2002042186536  23.7315084205226 25.2002042186536  C 23.7315084205226 25.2002042186536  22.8526408549209 21.9743607676382  22.8526408549209 21.9743607676382  C 21.7540563979187 18.2092122195488  20.7153947294803 12.8561097745201  19.616810272478 8.98110278073068  C 19.616810272478 8.98110278073068  18.6480585240306 9.04102556929433  18.6480585240306 9.04102556929433  C 17.6493453813014 13.5851703687124  16.5607480557264 19.3976808593966  15.522086387288 23.7720444245508  Z " fill-rule="evenodd" />
    </mask>
  </defs>
  <g transform="matrix(1 0 0 1 -862 -310 )">
    <path d="M 0.421543669221705 48.1506322385724  C 0.421543669221705 48.1506322385724  13.1052005818833 3.16859229004649  13.1052005818833 3.16859229004649  C 13.1052005818833 3.16859229004649  25.5991019974263 0.032633021876336  25.5991019974263 0.032633021876336  C 25.5991019974263 0.032633021876336  38.2627846472333 38.2633721255522  38.2627846472333 38.2633721255522  C 38.2627846472333 38.2633721255522  27.9460778828401 41.0198203994853  27.9460778828401 41.0198203994853  C 27.9460778828401 41.0198203994853  25.589114865999 32.2710932691771  25.589114865999 32.2710932691771  C 25.589114865999 32.2710932691771  12.7656381133553 35.4969367201925  12.7656381133553 35.4969367201925  C 12.7656381133553 35.4969367201925  10.4086750965142 45.484068147485  10.4086750965142 45.484068147485  C 10.4086750965142 45.484068147485  0.421543669221705 48.1506322385724  0.421543669221705 48.1506322385724  Z M 15.522086387288 23.7720444245508  C 15.522086387288 23.7720444245508  14.6432188216863 27.4273345269401  14.6432188216863 27.4273345269401  C 14.6432188216863 27.4273345269401  23.7315084205226 25.2002042186536  23.7315084205226 25.2002042186536  C 23.7315084205226 25.2002042186536  22.8526408549209 21.9743607676382  22.8526408549209 21.9743607676382  C 21.7540563979187 18.2092122195488  20.7153947294803 12.8561097745201  19.616810272478 8.98110278073068  C 19.616810272478 8.98110278073068  18.6480585240306 9.04102556929433  18.6480585240306 9.04102556929433  C 17.6493453813014 13.5851703687124  16.5607480557264 19.3976808593966  15.522086387288 23.7720444245508  Z " fill-rule="nonzero" fill="#ffffff" stroke="none" transform="matrix(1 0 0 1 862 310 )" />
    <path d="M 0.421543669221705 48.1506322385724  C 0.421543669221705 48.1506322385724  13.1052005818833 3.16859229004649  13.1052005818833 3.16859229004649  C 13.1052005818833 3.16859229004649  25.5991019974263 0.032633021876336  25.5991019974263 0.032633021876336  C 25.5991019974263 0.032633021876336  38.2627846472333 38.2633721255522  38.2627846472333 38.2633721255522  C 38.2627846472333 38.2633721255522  27.9460778828401 41.0198203994853  27.9460778828401 41.0198203994853  C 27.9460778828401 41.0198203994853  25.589114865999 32.2710932691771  25.589114865999 32.2710932691771  C 25.589114865999 32.2710932691771  12.7656381133553 35.4969367201925  12.7656381133553 35.4969367201925  C 12.7656381133553 35.4969367201925  10.4086750965142 45.484068147485  10.4086750965142 45.484068147485  C 10.4086750965142 45.484068147485  0.421543669221705 48.1506322385724  0.421543669221705 48.1506322385724  Z " stroke-width="1.49806971409388" stroke="#676d72" fill="none" transform="matrix(1 0 0 1 862 310 )" mask="url(#clip111)" />
    <path d="M 15.522086387288 23.7720444245508  C 15.522086387288 23.7720444245508  14.6432188216863 27.4273345269401  14.6432188216863 27.4273345269401  C 14.6432188216863 27.4273345269401  23.7315084205226 25.2002042186536  23.7315084205226 25.2002042186536  C 23.7315084205226 25.2002042186536  22.8526408549209 21.9743607676382  22.8526408549209 21.9743607676382  C 21.7540563979187 18.2092122195488  20.7153947294803 12.8561097745201  19.616810272478 8.98110278073068  C 19.616810272478 8.98110278073068  18.6480585240306 9.04102556929433  18.6480585240306 9.04102556929433  C 17.6493453813014 13.5851703687124  16.5607480557264 19.3976808593966  15.522086387288 23.7720444245508  Z " stroke-width="1.49806971409388" stroke="#676d72" fill="none" transform="matrix(1 0 0 1 862 310 )" mask="url(#clip111)" />
  </g>
</svg>