<?xml version="1.0" encoding="utf-8"?>
<svg version="1.1" xmlns:xlink="http://www.w3.org/1999/xlink" width="34px" height="47px" xmlns="http://www.w3.org/2000/svg">
  <defs>
    <mask fill="white" id="clip112">
      <path d="M 0.808216303922222 46.084890617132  C 0.808216303922222 46.084890617132  0.808216303922109 4.5084624853132  0.808216303922109 4.5084624853132  C 0.808216303922109 4.5084624853132  12.5530828624183 1.37250321714328  12.5530828624183 1.37250321714328  C 25.007035752252 -1.95321154814519  33.9754797739608 1.88184691993501  33.9754797739608 16.0935349409724  C 33.9754797739608 30.3052229620098  25.007035752252 39.6631651093828  13.1023750909194 42.8091115089801  C 13.1023750909194 42.8091115089801  0.808216303922222 46.084890617132  0.808216303922222 46.084890617132  Z M 10.635553628378 35.5684412241928  C 10.635553628378 35.5684412241928  11.9438678453533 35.2188916242378  11.9438678453533 35.2188916242378  C 18.5353745873665 33.4611564930342  23.9384126895317 28.4775779108154  23.9384126895317 18.7401247692051  C 23.9384126895317 9.00267162759474  18.5353745873665 7.58449896491925  11.9438678453533 9.34223409612264  C 11.9438678453533 9.34223409612264  10.635553628378 9.69178369607789  10.635553628378 9.69178369607789  C 10.635553628378 9.69178369607789  10.635553628378 35.5684412241928  10.635553628378 35.5684412241928  Z " fill-rule="evenodd" />
    </mask>
  </defs>
  <g transform="matrix(1 0 0 1 -903 -301 )">
    <path d="M 0.808216303922222 46.084890617132  C 0.808216303922222 46.084890617132  0.808216303922109 4.5084624853132  0.808216303922109 4.5084624853132  C 0.808216303922109 4.5084624853132  12.5530828624183 1.37250321714328  12.5530828624183 1.37250321714328  C 25.007035752252 -1.95321154814519  33.9754797739608 1.88184691993501  33.9754797739608 16.0935349409724  C 33.9754797739608 30.3052229620098  25.007035752252 39.6631651093828  13.1023750909194 42.8091115089801  C 13.1023750909194 42.8091115089801  0.808216303922222 46.084890617132  0.808216303922222 46.084890617132  Z M 10.635553628378 35.5684412241928  C 10.635553628378 35.5684412241928  11.9438678453533 35.2188916242378  11.9438678453533 35.2188916242378  C 18.5353745873665 33.4611564930342  23.9384126895317 28.4775779108154  23.9384126895317 18.7401247692051  C 23.9384126895317 9.00267162759474  18.5353745873665 7.58449896491925  11.9438678453533 9.34223409612264  C 11.9438678453533 9.34223409612264  10.635553628378 9.69178369607789  10.635553628378 9.69178369607789  C 10.635553628378 9.69178369607789  10.635553628378 35.5684412241928  10.635553628378 35.5684412241928  Z " fill-rule="nonzero" fill="#ffffff" stroke="none" transform="matrix(1 0 0 1 903 301 )" />
    <path d="M 0.808216303922222 46.084890617132  C 0.808216303922222 46.084890617132  0.808216303922109 4.5084624853132  0.808216303922109 4.5084624853132  C 0.808216303922109 4.5084624853132  12.5530828624183 1.37250321714328  12.5530828624183 1.37250321714328  C 25.007035752252 -1.95321154814519  33.9754797739608 1.88184691993501  33.9754797739608 16.0935349409724  C 33.9754797739608 30.3052229620098  25.007035752252 39.6631651093828  13.1023750909194 42.8091115089801  C 13.1023750909194 42.8091115089801  0.808216303922222 46.084890617132  0.808216303922222 46.084890617132  Z " stroke-width="1.49806971409388" stroke="#676d72" fill="none" transform="matrix(1 0 0 1 903 301 )" mask="url(#clip112)" />
    <path d="M 10.635553628378 35.5684412241928  C 10.635553628378 35.5684412241928  11.9438678453533 35.2188916242378  11.9438678453533 35.2188916242378  C 18.5353745873665 33.4611564930342  23.9384126895317 28.4775779108154  23.9384126895317 18.7401247692051  C 23.9384126895317 9.00267162759474  18.5353745873665 7.58449896491925  11.9438678453533 9.34223409612264  C 11.9438678453533 9.34223409612264  10.635553628378 9.69178369607789  10.635553628378 9.69178369607789  C 10.635553628378 9.69178369607789  10.635553628378 35.5684412241928  10.635553628378 35.5684412241928  Z " stroke-width="1.49806971409388" stroke="#676d72" fill="none" transform="matrix(1 0 0 1 903 301 )" mask="url(#clip112)" />
  </g>
</svg>