<?xml version="1.0" encoding="utf-8"?>
<svg version="1.1" xmlns:xlink="http://www.w3.org/1999/xlink" width="11px" height="11px" xmlns="http://www.w3.org/2000/svg">
  <g transform="matrix(1 0 0 1 -1623 -24 )">
    <path d="M 1628.5 24  C 1631.58 24  1634 26.42  1634 29.5  C 1634 32.58  1631.58 35  1628.5 35  C 1625.42 35  1623 32.58  1623 29.5  C 1623 26.42  1625.42 24  1628.5 24  Z " fill-rule="nonzero" fill="#ffffff" stroke="none" fill-opacity="0" />
    <path d="M 1628.5 24.4997895622896  C 1631.30011784512 24.4997895622896  1633.50021043771 26.6998821548822  1633.50021043771 29.5  C 1633.50021043771 32.3001178451178  1631.30011784512 34.5002104377104  1628.5 34.5002104377104  C 1625.69988215488 34.5002104377104  1623.49978956229 32.3001178451178  1623.49978956229 29.5  C 1623.49978956229 26.6998821548822  1625.69988215488 24.4997895622896  1628.5 24.4997895622896  Z " stroke-width="0.999579124579125" stroke="#676d72" fill="none" />
  </g>
</svg>