<?xml version="1.0" encoding="utf-8"?>
<svg version="1.1" xmlns:xlink="http://www.w3.org/1999/xlink" width="8px" height="12px" xmlns="http://www.w3.org/2000/svg">
  <g transform="matrix(1 0 0 1 -1654 -31 )">
    <path d="M 0.612058080807969 10.6278409090905  L 0.5620791245791 8.80860690235659  C 1.37255189150915 9.4164662684509  2.35780493107484 9.74605269449785  3.37089646464648 9.7482112794612  C 4.71033249158251 9.7482112794612  5.37005471380473 9.30839646464619  5.37005471380468 8.43876262626259  C 5.37639841767844 8.07727026353882  5.21375796990492 7.73350749892643  4.93023989898995 7.50915404040416  C 4.3823611759808 7.13470779790259  3.78302850462183 6.84177553718246  3.15098905723914 6.63952020201987  C 2.35465310603024 6.39158272703344  1.63302633858609 5.94829771274613  1.05187289562298 5.35006313131316  C 0.71630601962886 4.90861065941158  0.543309462830848 4.36490719518952  0.5620791245791 3.8107112794612  C 0.549705938353441 2.97812865092033  0.96467397873721 2.19723424765266  1.66161616161617 1.74158249158245  C 2.45274670122581 1.20355153549099  3.39425110705758 0.930550257963432  4.35048400673412 0.961910774410853  C 5.13827650389027 0.956095112700041  5.91949652007258 1.10554589840444  6.64951599326605 1.40172558922563  L 6.64951599326605 3.06102693602725  C 5.93051547587356 2.60098613724995  5.09410428671094 2.35804512794948  4.24053030303025 2.36132154882125  C 3.76765367198561 2.34052690184558  3.29988390414235 2.46619639171377  2.90109427609423 2.72117003366975  C 2.55732418947593 2.93354138080713  2.35773909622685 3.31735886782508  2.38131313131305 3.72074915824874  C 2.36517220045437 4.0635312117447  2.50039466519627 4.39610538178567  2.75115740740739 4.63036616161571  C 3.26586416308555 4.97783132474842  3.8236625702956 5.2567305283535  4.41045875420878 5.46001683501618  C 5.22901214844831 5.70879574304877  5.98076107435344 6.13934285515802  6.60953282828274 6.71948653198615  C 6.99456642948803 7.16548520750075  7.19792927197818 7.73989604330654  7.1792929292929 8.32880892255844  C 7.20234700263592 9.16957282353314  6.7905778669508 9.96288950696317  6.08975168350167 10.4279250841746  C 5.24767608396598 10.9759779585781  4.25453216160577 11.2452458530208  3.25094696969694 11.1976010101007  C 2.33862943650581 11.2191239619717  1.43422558191753 11.0238549479127  0.612058080807969 10.6278409090905  Z " fill-rule="nonzero" fill="#676d72" stroke="none" transform="matrix(1 0 0 1 1654 31 )" />
  </g>
</svg>