<?xml version="1.0" encoding="utf-8"?>
<svg version="1.1" xmlns:xlink="http://www.w3.org/1999/xlink" width="4px" height="15px" xmlns="http://www.w3.org/2000/svg">
  <g transform="matrix(1 0 0 1 -1662 -27 )">
    <path d="M 1.17845117845116 2.53293350168337  C 0.971208882509586 2.33571730879589  0.858400715577147 2.05915535115469  0.86858164983164 1.77325336700324  C 0.855485386256248 1.48391803690151  0.968531134423813 1.20312698500129  1.17845117845116 1.00357744107714  C 1.38053842706717 0.79628486555066  1.65864403711754 0.680708508127282  1.94812710437708 0.683712121212011  C 2.2414191060144 0.681526924940727  2.52425966731977 0.792514993301211  2.73779461279457 0.993581649831413  C 2.95411528201089 1.19362793911546  3.07115901962237 1.47892204954314  3.05765993265993 1.77325336700324  C 3.0652693775271 2.06070032188404  2.94872138787559 2.33750179730691  2.73779461279457 2.53293350168337  C 2.52326015022811 2.73125606114968  2.24022589956508 2.83873742216088  1.94812710437708 2.83280723905705  C 1.660333842299 2.8484888005853  1.37977838605548 2.73918147997097  1.17845117845116 2.53293350168337  Z M 2.79776936026934 14.907723063973  L 1.06849747474746 14.907723063973  L 1.06849747474746 5.19181397306374  L 2.79776936026934 5.19181397306374  L 2.79776936026934 14.907723063973  Z " fill-rule="nonzero" fill="#676d72" stroke="none" transform="matrix(1 0 0 1 1662 27 )" />
  </g>
</svg>