<?xml version="1.0" encoding="utf-8"?>
<svg version="1.1" xmlns:xlink="http://www.w3.org/1999/xlink" width="10px" height="16px" xmlns="http://www.w3.org/2000/svg">
  <g transform="matrix(1 0 0 1 -1666 -31 )">
    <path d="M 9.94307659932656 1.2118055555552  L 9.94307659932656 10.0980639730637  C 9.9430765993265 13.6832210998875  8.19714506172829 15.4791315937148  4.70528198653199 15.4857954545453  C 3.6176951906566 15.5129090827616  2.53901278534647 15.2834750473464  1.55660774410774 14.8160774410771  L 1.55660774410768 13.14678030303  C 2.50058415472483 13.7132834138627  3.57478163097841 14.0265910111034  4.67529461279457 14.056397306397  C 7.0476290684623 14.056397306397  8.23046436588095 12.8135872615037  8.22380050505046 10.3279671717169  L 8.22380050505046 9.32838804713788  C 7.55413470939999 10.5083039719993  6.28070430534831 11.2144790142463  4.92518939393932 11.1576178451176  C 3.79791332965243 11.202972667656  2.71430072605909 10.7184905820905  1.99642255892252 9.84816919191894  C 1.22639213401698 8.8609558515916  0.836230329479577 7.63017270455111  0.896885521885508 6.37962962962933  C 0.822357572256067 4.96521573896575  1.25081728333464 3.57006593594997  2.10637626262621 2.44128787878753  C 2.89869754779102 1.47564969396899  4.09677286359977 0.935776249191122  5.34501262626259 0.981902356901855  C 6.51854306567918 0.920687644756981  7.62850663056651 1.51806386891485  8.22380050505041 2.53124999999955  L 8.22380050505041 1.2118055555552  L 9.94307659932656 1.2118055555552  Z M 8.22380050505046 6.45959595959562  L 8.22380050505041 5.10016835016813  C 8.23754062604894 4.38160721800432  7.96411228672935 3.68724314578458  7.46412037037032 3.17098063973026  C 6.98275052558682 2.64417934275525  6.29841903873813 2.34933439363431  5.58491161616155 2.36132154882125  C 4.73496033281197 2.31276699282603  3.91580902586179 2.68680868549723  3.39583333333331 3.36090067340047  C 2.83253417587957 4.19646358274917  2.55866143592357 5.1936412513071  2.61616161616161 6.19970538720509  C 2.57285222107271 7.09546669723295  2.84131114113876 7.97855525008185  3.37584175084174 8.69865319865289  C 3.83797613960371 9.33953727384142  4.58501210659188 9.71305525733555  5.37499999999989 9.69823232323211  C 6.16496658731802 9.71805038906723  6.92164653421708 9.38011565550028  7.43413299663291 8.77861952861917  C 7.97649327944907 8.13065885187348  8.25802147850345 7.30389249515702  8.22380050505046 6.45959595959562  Z " fill-rule="nonzero" fill="#676d72" stroke="none" transform="matrix(1 0 0 1 1666 31 )" />
  </g>
</svg>