<?xml version="1.0" encoding="utf-8"?>
<svg version="1.1" xmlns:xlink="http://www.w3.org/1999/xlink" width="9px" height="11px" xmlns="http://www.w3.org/2000/svg">
  <g transform="matrix(1 0 0 1 -1678 -31 )">
    <path d="M 8.83848905723897 4.93023989898984  L 8.86847643097639 10.9077230639728  L 7.15919612794613 10.9077230639728  L 7.15919612794613 5.36005892255866  C 7.15919612794607 3.36090067340047  6.42950336700335 2.36132154882125  4.97011784511784 2.36132154882125  C 4.25454632539709 2.34196044848341  3.56950635835574 2.65133333682456  3.11090067340058 3.2009680134679  C 2.61047744885582 3.79864911830373  2.35036824129571 4.56116104183616  2.38120791245785 5.34006734006698  L 2.38120791245785 10.8777356902353  L 0.661931818181756 10.8777356902353  L 0.661931818181756 1.16182659932633  L 2.38120791245785 1.16182659932633  L 2.38120791245785 2.77114898989862  C 3.01475832758564 1.60830071847136  4.24606133350187 0.898082056751491  5.5698653198653 0.931923400672986  C 6.49356247533962 0.870797303083691  7.39371371846761 1.23971174698886  8.00883838383834 1.9315025252522  C 8.6209221209171 2.80644288455551  8.91382125778864 3.86511446360919  8.83848905723897 4.93023989898984  Z " fill-rule="nonzero" fill="#676d72" stroke="none" transform="matrix(1 0 0 1 1678 31 )" />
  </g>
</svg>