<?xml version="1.0" encoding="utf-8"?>
<svg version="1.1" xmlns:xlink="http://www.w3.org/1999/xlink" width="3px" height="15px" xmlns="http://www.w3.org/2000/svg">
  <g transform="matrix(1 0 0 1 -1694 -27 )">
    <path d="M 0.445286195286258 2.53293350168337  C 0.245116934702935 2.33096679876189  0.133613507167922 2.05760355706298  0.135416666666686 1.77325336700324  C 0.129782735895617 1.48523871366478  0.24166191036494 1.20734528030539  0.445286195286258 1.00357744107714  C 0.647373443902211 0.79628486555066  0.925479053952586 0.680708508127282  1.21496212121212 0.683712121212011  C 1.50864111556768 0.679417630566604  1.79224547592008 0.790705417540266  2.00462962962962 0.993581649831413  C 2.22095029884599 1.19362793911546  2.33799403645742 1.47892204954314  2.32449494949498 1.77325336700324  C 2.33210439436215 2.06070032188404  2.21555640471064 2.33750179730691  2.00462962962962 2.53293350168337  C 1.79123972940261 2.73309652795751  1.50742651018459 2.84087369981239  1.21496212121212 2.83280723905705  C 0.928400160080457 2.84109043685453  0.650711840139934 2.73290018233251  0.445286195286258 2.53293350168337  Z M 2.06460437710439 14.907723063973  L 0.335332491582506 14.907723063973  L 0.335332491582506 5.19181397306374  L 2.06460437710439 5.19181397306374  L 2.06460437710439 14.907723063973  Z " fill-rule="nonzero" fill="#676d72" stroke="none" transform="matrix(1 0 0 1 1694 27 )" />
  </g>
</svg>