<?xml version="1.0" encoding="utf-8"?>
<svg version="1.1" xmlns:xlink="http://www.w3.org/1999/xlink" width="9px" height="11px" xmlns="http://www.w3.org/2000/svg">
  <g transform="matrix(1 0 0 1 -1698 -31 )">
    <path d="M 8.96001683501669 4.93023989898984  L 8.99000420875416 10.9077230639728  L 7.2807239057239 10.9077230639728  L 7.2807239057239 5.36005892255866  C 7.2807239057239 3.36090067340047  6.55103114478112 2.36132154882125  5.09164562289561 2.36132154882125  C 4.37607410317497 2.34196044848341  3.69103413613345 2.65133333682456  3.23242845117829 3.2009680134679  C 2.73200522663365 3.79864911830373  2.47189601907343 4.56116104183616  2.50273569023562 5.34006734006698  L 2.50273569023562 10.8777356902353  L 0.773463804713742 10.8777356902353  L 0.773463804713742 1.16182659932633  L 2.50273569023562 1.16182659932633  L 2.50273569023562 2.77114898989862  C 3.13457384717748 1.60663106515085  4.3670011831403 0.89576388704063  5.69139309764307 0.931923400672986  C 6.61509025311733 0.870797303083691  7.51524149624527 1.23971174698886  8.13036616161611 1.9315025252522  C 8.74244989869487 2.80644288455551  9.03534903556641 3.86511446360919  8.96001683501669 4.93023989898984  Z " fill-rule="nonzero" fill="#676d72" stroke="none" transform="matrix(1 0 0 1 1698 31 )" />
  </g>
</svg>