<?xml version="1.0" encoding="utf-8"?>
<svg version="1.1" xmlns:xlink="http://www.w3.org/1999/xlink" width="33px" height="33px" xmlns="http://www.w3.org/2000/svg">
  <g transform="matrix(1 0 0 1 -1612 -20 )">
    <path d="M 1628.5 20  C 1637.74 20  1645 27.26  1645 36.5  C 1645 45.74  1637.74 53  1628.5 53  C 1619.26 53  1612 45.74  1612 36.5  C 1612 27.26  1619.26 20  1628.5 20  Z " fill-rule="nonzero" fill="#ffffff" stroke="none" fill-opacity="0" />
    <path d="M 1628.5 20.4997895622896  C 1637.46011784512 20.4997895622896  1644.50021043771 27.5398821548822  1644.50021043771 36.5  C 1644.50021043771 45.4601178451179  1637.46011784512 52.5002104377104  1628.5 52.5002104377104  C 1619.53988215488 52.5002104377104  1612.49978956229 45.4601178451179  1612.49978956229 36.5  C 1612.49978956229 27.5398821548822  1619.53988215488 20.4997895622896  1628.5 20.4997895622896  Z " stroke-width="0.999579124579125" stroke="#676d72" fill="none" />
  </g>
</svg>